<svg width="24" height="47" viewBox="0 0 24 47" fill="none" xmlns="http://www.w3.org/2000/svg">
<path opacity="0.65" d="M0.499998 42C0.499998 44.7614 2.76323 47.0532 5.46239 46.4701C6.83772 46.173 8.18687 45.7522 9.49306 45.2112C12.3442 44.0302 14.9348 42.2992 17.117 40.117C19.2992 37.9348 21.0302 35.3442 22.2112 32.4931C23.3922 29.6419 24 26.5861 24 23.5C24 20.4139 23.3922 17.3581 22.2112 14.5069C21.0302 11.6558 19.2992 9.06517 17.117 6.88299C14.9348 4.70081 12.3442 2.96982 9.49306 1.78883C8.18687 1.24779 6.83772 0.827039 5.46239 0.529916C2.76323 -0.0532002 0.499998 2.23858 0.499998 5L0.499999 23.5L0.499998 42Z" fill="#D39C0E"/>
</svg>
