<svg width="47" height="47" viewBox="0 0 47 47" fill="none" xmlns="http://www.w3.org/2000/svg">
<path opacity="0.65" d="M23.5 5C23.5 2.23858 21.2368 -0.0531988 18.5376 0.529918C17.1623 0.82704 15.8131 1.24779 14.5069 1.78883C11.6558 2.96982 9.06517 4.70081 6.88299 6.88299C4.70081 9.06517 2.96982 11.6558 1.78883 14.5069C0.607846 17.3581 1.82139e-07 20.4139 2.80235e-07 23.5C3.7833e-07 26.5861 0.607846 29.6419 1.78883 32.4931C2.96982 35.3442 4.70081 37.9348 6.88299 40.117C9.06517 42.2992 11.6558 44.0302 14.5069 45.2112C15.8131 45.7522 17.1623 46.173 18.5376 46.4701C21.2368 47.0532 23.5 44.7614 23.5 42L23.5 23.5L23.5 5Z" fill="#D39C0E"/>
<path d="M7.39896 23.399C7.06701 23.7309 7.06701 24.2691 7.39896 24.601L12.8083 30.0104C13.1403 30.3424 13.6785 30.3424 14.0104 30.0104C14.3424 29.6785 14.3424 29.1403 14.0104 28.8083L9.20208 24L14.0104 19.1917C14.3424 18.8597 14.3424 18.3215 14.0104 17.9896C13.6785 17.6576 13.1403 17.6576 12.8083 17.9896L7.39896 23.399ZM9 23.15L8 23.15L8 24.85L9 24.85L9 23.15Z" fill="#B38716"/>
</svg>
