<svg width="473" height="216" viewBox="0 0 473 216" fill="none" xmlns="http://www.w3.org/2000/svg">
<g opacity="0.05">
<circle cx="3" cy="3" r="3" fill="white"/>
<circle cx="34" cy="3" r="3" fill="white"/>
<circle cx="65" cy="3" r="3" fill="white"/>
<circle cx="96" cy="3" r="3" fill="white"/>
<circle cx="127" cy="3" r="3" fill="white"/>
<circle cx="3" cy="34" r="3" fill="white"/>
<circle cx="34" cy="34" r="3" fill="white"/>
<circle cx="65" cy="34" r="3" fill="white"/>
<circle cx="96" cy="34" r="3" fill="white"/>
<circle cx="127" cy="34" r="3" fill="white"/>
<circle cx="3" cy="65" r="3" fill="white"/>
<circle cx="34" cy="65" r="3" fill="white"/>
<circle cx="65" cy="65" r="3" fill="white"/>
<circle cx="96" cy="65" r="3" fill="white"/>
<circle cx="127" cy="65" r="3" fill="white"/>
</g>
<g opacity="0.25">
<circle cx="308.5" cy="151.5" r="1.5" fill="white"/>
<circle cx="344.5" cy="151.5" r="1.5" fill="white"/>
<circle cx="380.5" cy="151.5" r="1.5" fill="white"/>
<circle cx="416.5" cy="151.5" r="1.5" fill="white"/>
<circle cx="452.5" cy="151.5" r="1.5" fill="white"/>
<circle cx="308.5" cy="182.5" r="1.5" fill="white"/>
<circle cx="344.5" cy="182.5" r="1.5" fill="white"/>
<circle cx="380.5" cy="182.5" r="1.5" fill="white"/>
<circle cx="416.5" cy="182.5" r="1.5" fill="white"/>
<circle cx="452.5" cy="182.5" r="1.5" fill="white"/>
<circle cx="308.5" cy="213.5" r="1.5" fill="white"/>
<circle cx="344.5" cy="213.5" r="1.5" fill="white"/>
<circle cx="380.5" cy="213.5" r="1.5" fill="white"/>
<circle cx="416.5" cy="213.5" r="1.5" fill="white"/>
<circle cx="452.5" cy="213.5" r="1.5" fill="white"/>
</g>
</svg>
