<svg width="19" height="18" viewBox="0 0 19 18" fill="none" xmlns="http://www.w3.org/2000/svg">
<path d="M9.40553 17.9996H2.63125C1.75524 18.0145 0.932047 17.5819 0.447378 16.852C0.15645 16.4351 0.000958156 15.9387 0.0020394 15.4304V10.2918C-0.0228197 9.9421 0.181555 9.61648 0.507327 9.48681C0.813286 9.33041 1.18479 9.38545 1.43226 9.62384C1.61844 9.7917 1.72172 10.0327 1.71488 10.2833V15.3704C1.70739 15.6445 1.83156 15.9055 2.04888 16.0727C2.19032 16.1843 2.36542 16.2447 2.54561 16.244H16.1969C16.4467 16.2623 16.692 16.1705 16.8682 15.9926C17.0445 15.8147 17.134 15.5686 17.1133 15.319V10.2918C17.1039 10.0203 17.224 9.76036 17.4368 9.59143C17.6497 9.4225 17.93 9.36461 18.1924 9.43543C18.5408 9.53206 18.791 9.83707 18.8176 10.1976C18.8215 10.2346 18.8215 10.272 18.8176 10.309V15.3533C18.8176 16.7722 17.6673 17.9225 16.2483 17.9225L9.40553 17.9996Z" fill="white"/>
<path d="M8.74608 11.9105V0.948318C8.73594 0.77011 8.77442 0.592497 8.85741 0.434466C9.05043 0.0936413 9.45008 -0.0728004 9.82796 0.0302591C10.2058 0.133319 10.4657 0.479612 10.4589 0.87124V11.9105L10.5874 11.8077L12.6856 10.0949C12.972 9.87415 13.3661 9.85701 13.6705 10.0521C13.9186 10.1948 14.0789 10.4521 14.0978 10.7377C14.1168 11.0233 13.9918 11.2995 13.7647 11.4737L10.2619 14.2742C9.89311 14.5754 9.36327 14.5754 8.99444 14.2742L5.45743 11.4651C5.10892 11.1707 5.05242 10.6547 5.32896 10.2919C5.47171 10.1142 5.67939 10.0007 5.90604 9.97659C6.13268 9.95248 6.35959 10.0197 6.53652 10.1634L8.05238 11.3795L8.74608 11.9105Z" fill="white"/>
</svg>
