<svg width="43" height="52" viewBox="0 0 43 52" fill="none" xmlns="http://www.w3.org/2000/svg">
<g opacity="0.55" filter="url(#filter0_f)">
<path d="M26.9288 15.9473H24.1961C21.1355 15.9473 19.1461 17.9804 19.1461 21.1285V23.5114H16.4353C16.1948 23.5114 15.998 23.7081 15.998 23.9486V27.4027C15.998 27.6432 16.1948 27.8399 16.4353 27.8399H19.168V36.5627C19.168 36.8032 19.3647 36.9999 19.6052 36.9999H23.1905C23.431 36.9999 23.6277 36.8032 23.6277 36.5627V27.8181H26.8414C27.0818 27.8181 27.2786 27.6213 27.2786 27.3809V23.9267C27.2786 23.8174 27.2349 23.7081 27.1474 23.6207C27.06 23.5332 26.9507 23.4895 26.8414 23.4895H23.6059V21.4782C23.6059 20.5163 23.8463 20.0135 25.0924 20.0135H26.9288C27.1693 20.0135 27.366 19.8168 27.366 19.5763V16.3845C27.366 16.144 27.1693 15.9473 26.9288 15.9473Z" fill="url(#paint0_linear)"/>
</g>
<path d="M26.9288 15.9473H24.1961C21.1355 15.9473 19.1461 17.9804 19.1461 21.1285V23.5114H16.4353C16.1948 23.5114 15.998 23.7081 15.998 23.9486V27.4027C15.998 27.6432 16.1948 27.8399 16.4353 27.8399H19.168V36.5627C19.168 36.8032 19.3647 36.9999 19.6052 36.9999H23.1905C23.431 36.9999 23.6277 36.8032 23.6277 36.5627V27.8181H26.8414C27.0818 27.8181 27.2786 27.6213 27.2786 27.3809V23.9267C27.2786 23.8174 27.2349 23.7081 27.1474 23.6207C27.06 23.5332 26.9507 23.4895 26.8414 23.4895H23.6059V21.4782C23.6059 20.5163 23.8463 20.0135 25.0924 20.0135H26.9288C27.1693 20.0135 27.366 19.8168 27.366 19.5763V16.3845C27.366 16.144 27.1693 15.9473 26.9288 15.9473Z" fill="url(#paint1_linear)"/>
<defs>
<filter id="filter0_f" x="0.998047" y="0.947266" width="41.368" height="51.0527" filterUnits="userSpaceOnUse" color-interpolation-filters="sRGB">
<feFlood flood-opacity="0" result="BackgroundImageFix"/>
<feBlend mode="normal" in="SourceGraphic" in2="BackgroundImageFix" result="shape"/>
<feGaussianBlur stdDeviation="7.5" result="effect1_foregroundBlur"/>
</filter>
<linearGradient id="paint0_linear" x1="21.682" y1="15.9473" x2="21.682" y2="36.9999" gradientUnits="userSpaceOnUse">
<stop stop-color="#734AE6"/>
<stop offset="1" stop-color="#7AAEFE"/>
</linearGradient>
<linearGradient id="paint1_linear" x1="21.682" y1="15.9473" x2="21.682" y2="36.9999" gradientUnits="userSpaceOnUse">
<stop stop-color="#734AE6"/>
<stop offset="1" stop-color="#7AAEFE"/>
</linearGradient>
</defs>
</svg>
