<svg width="15" height="15" viewBox="0 0 15 15" fill="none" xmlns="http://www.w3.org/2000/svg">
<path fill-rule="evenodd" clip-rule="evenodd" d="M2.77273 14H12.2273C13.2063 14 14 13.2063 14 12.2273V6.31818C14 5.33913 13.2063 4.54545 12.2273 4.54545H11.0455V2.77273C11.0455 1.79368 10.2518 1 9.27273 1H5.72727C4.74822 1 3.95455 1.79368 3.95455 2.77273V4.54545H2.77273C1.79368 4.54545 1 5.33913 1 6.31818V12.2273C1 13.2063 1.79368 14 2.77273 14ZM5.13636 2.77273C5.13636 2.44638 5.40092 2.18182 5.72727 2.18182H9.27273C9.59908 2.18182 9.86364 2.44638 9.86364 2.77273V4.54545H5.13636V2.77273ZM2.18182 6.31818C2.18182 5.99183 2.44638 5.72727 2.77273 5.72727H12.2273C12.5536 5.72727 12.8182 5.99183 12.8182 6.31818V12.2273C12.8182 12.5536 12.5536 12.8182 12.2273 12.8182H2.77273C2.44638 12.8182 2.18182 12.5536 2.18182 12.2273V6.31818Z" fill="white"/>
<path d="M11.0455 4.54545H10.8955V4.69545H11.0455V4.54545ZM3.95455 4.54545V4.69545H4.10455V4.54545H3.95455ZM9.86364 4.54545V4.69545H10.0136V4.54545H9.86364ZM5.13636 4.54545H4.98636V4.69545H5.13636V4.54545ZM2.77273 14.15H12.2273V13.85H2.77273V14.15ZM12.2273 14.15C13.2892 14.15 14.15 13.2892 14.15 12.2273H13.85C13.85 13.1235 13.1235 13.85 12.2273 13.85V14.15ZM14.15 12.2273V6.31818H13.85V12.2273H14.15ZM14.15 6.31818C14.15 5.25629 13.2892 4.39545 12.2273 4.39545V4.69545C13.1235 4.69545 13.85 5.42197 13.85 6.31818H14.15ZM12.2273 4.39545H11.0455V4.69545H12.2273V4.39545ZM11.1955 4.54545V2.77273H10.8955V4.54545H11.1955ZM11.1955 2.77273C11.1955 1.71083 10.3346 0.85 9.27273 0.85V1.15C10.1689 1.15 10.8955 1.87652 10.8955 2.77273H11.1955ZM9.27273 0.85H5.72727V1.15H9.27273V0.85ZM5.72727 0.85C4.66538 0.85 3.80455 1.71083 3.80455 2.77273H4.10455C4.10455 1.87652 4.83106 1.15 5.72727 1.15V0.85ZM3.80455 2.77273V4.54545H4.10455V2.77273H3.80455ZM3.95455 4.39545H2.77273V4.69545H3.95455V4.39545ZM2.77273 4.39545C1.71083 4.39545 0.85 5.25629 0.85 6.31818H1.15C1.15 5.42197 1.87652 4.69545 2.77273 4.69545V4.39545ZM0.85 6.31818V12.2273H1.15V6.31818H0.85ZM0.85 12.2273C0.85 13.2892 1.71083 14.15 2.77273 14.15V13.85C1.87652 13.85 1.15 13.1235 1.15 12.2273H0.85ZM5.28636 2.77273C5.28636 2.52922 5.48377 2.33182 5.72727 2.33182V2.03182C5.31808 2.03182 4.98636 2.36353 4.98636 2.77273H5.28636ZM5.72727 2.33182H9.27273V2.03182H5.72727V2.33182ZM9.27273 2.33182C9.51623 2.33182 9.71364 2.52922 9.71364 2.77273H10.0136C10.0136 2.36353 9.68192 2.03182 9.27273 2.03182V2.33182ZM9.71364 2.77273V4.54545H10.0136V2.77273H9.71364ZM9.86364 4.39545H5.13636V4.69545H9.86364V4.39545ZM5.28636 4.54545V2.77273H4.98636V4.54545H5.28636ZM2.33182 6.31818C2.33182 6.07467 2.52922 5.87727 2.77273 5.87727V5.57727C2.36353 5.57727 2.03182 5.90899 2.03182 6.31818H2.33182ZM2.77273 5.87727H12.2273V5.57727H2.77273V5.87727ZM12.2273 5.87727C12.4708 5.87727 12.6682 6.07467 12.6682 6.31818H12.9682C12.9682 5.90899 12.6365 5.57727 12.2273 5.57727V5.87727ZM12.6682 6.31818V12.2273H12.9682V6.31818H12.6682ZM12.6682 12.2273C12.6682 12.4708 12.4708 12.6682 12.2273 12.6682V12.9682C12.6365 12.9682 12.9682 12.6365 12.9682 12.2273H12.6682ZM12.2273 12.6682H2.77273V12.9682H12.2273V12.6682ZM2.77273 12.6682C2.52922 12.6682 2.33182 12.4708 2.33182 12.2273H2.03182C2.03182 12.6365 2.36353 12.9682 2.77273 12.9682V12.6682ZM2.33182 12.2273V6.31818H2.03182V12.2273H2.33182Z" fill="white"/>
<path fill-rule="evenodd" clip-rule="evenodd" d="M6.93863 9.99363C6.92256 10.0455 6.91264 10.099 6.90909 10.1532V11.9259C6.90909 12.2523 7.17365 12.5168 7.5 12.5168C7.82635 12.5168 8.09091 12.2523 8.09091 11.9259V10.1532C8.09091 10.1532 8.09091 10.1177 8.09091 10.1C8.93391 9.8973 9.5066 9.11459 9.44467 8.24977C9.38274 7.38496 8.70437 6.69184 7.84109 6.61133C6.97781 6.53081 6.18296 7.08654 5.96218 7.92498C5.7414 8.76343 6.15947 9.63854 6.95045 9.99363H6.93863ZM7.67136 7.78954C7.99771 7.78954 8.26227 8.0541 8.26227 8.38045C8.26227 8.7068 7.99771 8.97135 7.67136 8.97135C7.34501 8.97135 7.08046 8.7068 7.08046 8.38045C7.08046 8.0541 7.34501 7.78954 7.67136 7.78954Z" fill="white"/>
<path d="M6.93863 9.99363V9.84363H6.82811L6.79537 9.9492L6.93863 9.99363ZM6.90909 10.1532L6.75909 10.1433V10.1532H6.90909ZM8.09091 10.1L8.05584 9.95415L7.94091 9.98179V10.1H8.09091ZM6.95045 9.99363V10.1436L7.01188 9.85679L6.95045 9.99363ZM7.08046 8.38045H7.23046H7.08046ZM6.79537 9.9492C6.7758 10.0123 6.76373 10.0775 6.75941 10.1434L7.05877 10.163C7.06155 10.1206 7.06931 10.0787 7.0819 10.0381L6.79537 9.9492ZM6.75909 10.1532V11.9259H7.05909V10.1532H6.75909ZM6.75909 11.9259C6.75909 12.3351 7.0908 12.6668 7.5 12.6668V12.3668C7.25649 12.3668 7.05909 12.1694 7.05909 11.9259H6.75909ZM7.5 12.6668C7.90919 12.6668 8.24091 12.3351 8.24091 11.9259H7.94091C7.94091 12.1694 7.7435 12.3668 7.5 12.3668V12.6668ZM8.24091 11.9259V10.1532H7.94091V11.9259H8.24091ZM8.09091 10.1532C8.24091 10.1532 8.24091 10.1532 8.24091 10.1532C8.24091 10.1532 8.24091 10.1532 8.24091 10.1532C8.24091 10.1532 8.24091 10.1532 8.24091 10.1532C8.24091 10.1532 8.24091 10.1532 8.24091 10.1532C8.24091 10.1532 8.24091 10.1532 8.24091 10.1532C8.24091 10.1532 8.24091 10.1532 8.24091 10.1532C8.24091 10.1532 8.24091 10.1532 8.24091 10.1532C8.24091 10.1532 8.24091 10.1532 8.24091 10.1532C8.24091 10.1531 8.24091 10.1531 8.24091 10.1531C8.24091 10.1531 8.24091 10.1531 8.24091 10.1531C8.24091 10.1531 8.24091 10.1531 8.24091 10.1531C8.24091 10.1531 8.24091 10.1531 8.24091 10.1531C8.24091 10.1531 8.24091 10.1531 8.24091 10.1531C8.24091 10.1531 8.24091 10.1531 8.24091 10.1531C8.24091 10.1531 8.24091 10.1531 8.24091 10.1531C8.24091 10.1531 8.24091 10.1531 8.24091 10.1531C8.24091 10.1531 8.24091 10.1531 8.24091 10.1531C8.24091 10.1531 8.24091 10.1531 8.24091 10.153C8.24091 10.153 8.24091 10.153 8.24091 10.153C8.24091 10.153 8.24091 10.153 8.24091 10.153C8.24091 10.153 8.24091 10.153 8.24091 10.153C8.24091 10.153 8.24091 10.153 8.24091 10.153C8.24091 10.153 8.24091 10.153 8.24091 10.153C8.24091 10.153 8.24091 10.153 8.24091 10.1529C8.24091 10.1529 8.24091 10.1529 8.24091 10.1529C8.24091 10.1529 8.24091 10.1529 8.24091 10.1529C8.24091 10.1529 8.24091 10.1529 8.24091 10.1529C8.24091 10.1529 8.24091 10.1529 8.24091 10.1529C8.24091 10.1529 8.24091 10.1529 8.24091 10.1528C8.24091 10.1528 8.24091 10.1528 8.24091 10.1528C8.24091 10.1528 8.24091 10.1528 8.24091 10.1528C8.24091 10.1528 8.24091 10.1528 8.24091 10.1528C8.24091 10.1528 8.24091 10.1528 8.24091 10.1527C8.24091 10.1527 8.24091 10.1527 8.24091 10.1527C8.24091 10.1527 8.24091 10.1527 8.24091 10.1527C8.24091 10.1527 8.24091 10.1527 8.24091 10.1527C8.24091 10.1527 8.24091 10.1527 8.24091 10.1526C8.24091 10.1526 8.24091 10.1526 8.24091 10.1526C8.24091 10.1526 8.24091 10.1526 8.24091 10.1526C8.24091 10.1526 8.24091 10.1526 8.24091 10.1526C8.24091 10.1525 8.24091 10.1525 8.24091 10.1525C8.24091 10.1525 8.24091 10.1525 8.24091 10.1525C8.24091 10.1525 8.24091 10.1525 8.24091 10.1525C8.24091 10.1524 8.24091 10.1524 8.24091 10.1524C8.24091 10.1524 8.24091 10.1524 8.24091 10.1524C8.24091 10.1524 8.24091 10.1524 8.24091 10.1524C8.24091 10.1523 8.24091 10.1523 8.24091 10.1523C8.24091 10.1523 8.24091 10.1523 8.24091 10.1523C8.24091 10.1523 8.24091 10.1523 8.24091 10.1522C8.24091 10.1522 8.24091 10.1522 8.24091 10.1522C8.24091 10.1522 8.24091 10.1522 8.24091 10.1522C8.24091 10.1522 8.24091 10.1521 8.24091 10.1521C8.24091 10.1521 8.24091 10.1521 8.24091 10.1521C8.24091 10.1521 8.24091 10.1521 8.24091 10.1521C8.24091 10.152 8.24091 10.152 8.24091 10.152C8.24091 10.152 8.24091 10.152 8.24091 10.152C8.24091 10.152 8.24091 10.1519 8.24091 10.1519C8.24091 10.1519 8.24091 10.1519 8.24091 10.1519C8.24091 10.1519 8.24091 10.1519 8.24091 10.1518C8.24091 10.1518 8.24091 10.1518 8.24091 10.1518C8.24091 10.1518 8.24091 10.1518 8.24091 10.1518C8.24091 10.1517 8.24091 10.1517 8.24091 10.1517C8.24091 10.1517 8.24091 10.1517 8.24091 10.1517C8.24091 10.1516 8.24091 10.1516 8.24091 10.1516C8.24091 10.1516 8.24091 10.1516 8.24091 10.1516C8.24091 10.1516 8.24091 10.1515 8.24091 10.1515C8.24091 10.1515 8.24091 10.1515 8.24091 10.1515C8.24091 10.1515 8.24091 10.1514 8.24091 10.1514C8.24091 10.1514 8.24091 10.1514 8.24091 10.1514C8.24091 10.1514 8.24091 10.1513 8.24091 10.1513C8.24091 10.1513 8.24091 10.1513 8.24091 10.1513C8.24091 10.1513 8.24091 10.1512 8.24091 10.1512C8.24091 10.1512 8.24091 10.1512 8.24091 10.1512C8.24091 10.1512 8.24091 10.1511 8.24091 10.1511C8.24091 10.1511 8.24091 10.1511 8.24091 10.1511C8.24091 10.151 8.24091 10.151 8.24091 10.151C8.24091 10.151 8.24091 10.151 8.24091 10.151C8.24091 10.1509 8.24091 10.1509 8.24091 10.1509C8.24091 10.1509 8.24091 10.1509 8.24091 10.1508C8.24091 10.1508 8.24091 10.1508 8.24091 10.1508C8.24091 10.1508 8.24091 10.1507 8.24091 10.1507C8.24091 10.1507 8.24091 10.1507 8.24091 10.1507C8.24091 10.1506 8.24091 10.1506 8.24091 10.1506C8.24091 10.1506 8.24091 10.1506 8.24091 10.1505C8.24091 10.1505 8.24091 10.1505 8.24091 10.1505C8.24091 10.1505 8.24091 10.1504 8.24091 10.1504C8.24091 10.1504 8.24091 10.1504 8.24091 10.1504C8.24091 10.1503 8.24091 10.1503 8.24091 10.1503C8.24091 10.1503 8.24091 10.1503 8.24091 10.1502C8.24091 10.1502 8.24091 10.1502 8.24091 10.1502C8.24091 10.1502 8.24091 10.1501 8.24091 10.1501C8.24091 10.1501 8.24091 10.1501 8.24091 10.1501C8.24091 10.15 8.24091 10.15 8.24091 10.15C8.24091 10.15 8.24091 10.1499 8.24091 10.1499C8.24091 10.1499 8.24091 10.1499 8.24091 10.1499C8.24091 10.1498 8.24091 10.1498 8.24091 10.1498C8.24091 10.1498 8.24091 10.1497 8.24091 10.1497C8.24091 10.1497 8.24091 10.1497 8.24091 10.1497C8.24091 10.1496 8.24091 10.1496 8.24091 10.1496C8.24091 10.1496 8.24091 10.1495 8.24091 10.1495C8.24091 10.1495 8.24091 10.1495 8.24091 10.1494C8.24091 10.1494 8.24091 10.1494 8.24091 10.1494C8.24091 10.1494 8.24091 10.1493 8.24091 10.1493C8.24091 10.1493 8.24091 10.1493 8.24091 10.1492C8.24091 10.1492 8.24091 10.1492 8.24091 10.1492C8.24091 10.1491 8.24091 10.1491 8.24091 10.1491C8.24091 10.1491 8.24091 10.149 8.24091 10.149C8.24091 10.149 8.24091 10.149 8.24091 10.1489C8.24091 10.1489 8.24091 10.1489 8.24091 10.1489C8.24091 10.1488 8.24091 10.1488 8.24091 10.1488C8.24091 10.1488 8.24091 10.1487 8.24091 10.1487C8.24091 10.1487 8.24091 10.1487 8.24091 10.1486C8.24091 10.1486 8.24091 10.1486 8.24091 10.1486C8.24091 10.1485 8.24091 10.1485 8.24091 10.1485C8.24091 10.1485 8.24091 10.1484 8.24091 10.1484C8.24091 10.1484 8.24091 10.1484 8.24091 10.1483C8.24091 10.1483 8.24091 10.1483 8.24091 10.1483C8.24091 10.1482 8.24091 10.1482 8.24091 10.1482C8.24091 10.1482 8.24091 10.1481 8.24091 10.1481C8.24091 10.1481 8.24091 10.148 8.24091 10.148C8.24091 10.148 8.24091 10.148 8.24091 10.1479C8.24091 10.1479 8.24091 10.1479 8.24091 10.1479C8.24091 10.1478 8.24091 10.1478 8.24091 10.1478C8.24091 10.1477 8.24091 10.1477 8.24091 10.1477C8.24091 10.1477 8.24091 10.1476 8.24091 10.1476C8.24091 10.1476 8.24091 10.1476 8.24091 10.1475C8.24091 10.1475 8.24091 10.1475 8.24091 10.1474C8.24091 10.1474 8.24091 10.1474 8.24091 10.1474C8.24091 10.1473 8.24091 10.1473 8.24091 10.1473C8.24091 10.1472 8.24091 10.1472 8.24091 10.1472C8.24091 10.1472 8.24091 10.1471 8.24091 10.1471C8.24091 10.1471 8.24091 10.147 8.24091 10.147C8.24091 10.147 8.24091 10.147 8.24091 10.1469C8.24091 10.1469 8.24091 10.1469 8.24091 10.1468C8.24091 10.1468 8.24091 10.1468 8.24091 10.1468C8.24091 10.1467 8.24091 10.1467 8.24091 10.1467C8.24091 10.1466 8.24091 10.1466 8.24091 10.1466C8.24091 10.1466 8.24091 10.1465 8.24091 10.1465C8.24091 10.1465 8.24091 10.1464 8.24091 10.1464C8.24091 10.1464 8.24091 10.1463 8.24091 10.1463C8.24091 10.1463 8.24091 10.1463 8.24091 10.1462C8.24091 10.1462 8.24091 10.1462 8.24091 10.1461C8.24091 10.1461 8.24091 10.1461 8.24091 10.146C8.24091 10.146 8.24091 10.146 8.24091 10.1459C8.24091 10.1459 8.24091 10.1459 8.24091 10.1459C8.24091 10.1458 8.24091 10.1458 8.24091 10.1458C8.24091 10.1457 8.24091 10.1457 8.24091 10.1457C8.24091 10.1456 8.24091 10.1456 8.24091 10.1456C8.24091 10.1455 8.24091 10.1455 8.24091 10.1455C8.24091 10.1454 8.24091 10.1454 8.24091 10.1454C8.24091 10.1454 8.24091 10.1453 8.24091 10.1453C8.24091 10.1453 8.24091 10.1452 8.24091 10.1452C8.24091 10.1452 8.24091 10.1451 8.24091 10.1451C8.24091 10.1451 8.24091 10.145 8.24091 10.145C8.24091 10.145 8.24091 10.1449 8.24091 10.1449C8.24091 10.1449 8.24091 10.1448 8.24091 10.1448C8.24091 10.1448 8.24091 10.1447 8.24091 10.1447C8.24091 10.1447 8.24091 10.1446 8.24091 10.1446C8.24091 10.1446 8.24091 10.1445 8.24091 10.1445C8.24091 10.1445 8.24091 10.1444 8.24091 10.1444C8.24091 10.1444 8.24091 10.1443 8.24091 10.1443C8.24091 10.1443 8.24091 10.1442 8.24091 10.1442C8.24091 10.1442 8.24091 10.1441 8.24091 10.1441C8.24091 10.1441 8.24091 10.144 8.24091 10.144C8.24091 10.144 8.24091 10.1439 8.24091 10.1439C8.24091 10.1439 8.24091 10.1438 8.24091 10.1438C8.24091 10.1438 8.24091 10.1437 8.24091 10.1437C8.24091 10.1437 8.24091 10.1436 8.24091 10.1436C8.24091 10.1436 8.24091 10.1435 8.24091 10.1435C8.24091 10.1435 8.24091 10.1434 8.24091 10.1434C8.24091 10.1434 8.24091 10.1433 8.24091 10.1433C8.24091 10.1433 8.24091 10.1432 8.24091 10.1432C8.24091 10.1432 8.24091 10.1431 8.24091 10.1431C8.24091 10.143 8.24091 10.143 8.24091 10.143C8.24091 10.1429 8.24091 10.1429 8.24091 10.1429C8.24091 10.1428 8.24091 10.1428 8.24091 10.1428C8.24091 10.1427 8.24091 10.1427 8.24091 10.1427C8.24091 10.1426 8.24091 10.1426 8.24091 10.1426C8.24091 10.1425 8.24091 10.1425 8.24091 10.1424C8.24091 10.1424 8.24091 10.1424 8.24091 10.1423C8.24091 10.1423 8.24091 10.1423 8.24091 10.1422C8.24091 10.1422 8.24091 10.1422 8.24091 10.1421C8.24091 10.1421 8.24091 10.1421 8.24091 10.142C8.24091 10.142 8.24091 10.1419 8.24091 10.1419C8.24091 10.1419 8.24091 10.1418 8.24091 10.1418C8.24091 10.1418 8.24091 10.1417 8.24091 10.1417C8.24091 10.1417 8.24091 10.1416 8.24091 10.1416C8.24091 10.1415 8.24091 10.1415 8.24091 10.1415C8.24091 10.1414 8.24091 10.1414 8.24091 10.1414C8.24091 10.1413 8.24091 10.1413 8.24091 10.1412C8.24091 10.1412 8.24091 10.1412 8.24091 10.1411C8.24091 10.1411 8.24091 10.1411 8.24091 10.141C8.24091 10.141 8.24091 10.1409 8.24091 10.1409C8.24091 10.1409 8.24091 10.1408 8.24091 10.1408C8.24091 10.1408 8.24091 10.1407 8.24091 10.1407C8.24091 10.1406 8.24091 10.1406 8.24091 10.1406C8.24091 10.1405 8.24091 10.1405 8.24091 10.1405C8.24091 10.1404 8.24091 10.1404 8.24091 10.1403C8.24091 10.1403 8.24091 10.1403 8.24091 10.1402C8.24091 10.1402 8.24091 10.1402 8.24091 10.1401C8.24091 10.1401 8.24091 10.14 8.24091 10.14C8.24091 10.14 8.24091 10.1399 8.24091 10.1399C8.24091 10.1398 8.24091 10.1398 8.24091 10.1398C8.24091 10.1397 8.24091 10.1397 8.24091 10.1397C8.24091 10.1396 8.24091 10.1396 8.24091 10.1395C8.24091 10.1395 8.24091 10.1395 8.24091 10.1394C8.24091 10.1394 8.24091 10.1393 8.24091 10.1393C8.24091 10.1393 8.24091 10.1392 8.24091 10.1392C8.24091 10.1391 8.24091 10.1391 8.24091 10.1391C8.24091 10.139 8.24091 10.139 8.24091 10.139C8.24091 10.1389 8.24091 10.1389 8.24091 10.1388C8.24091 10.1388 8.24091 10.1388 8.24091 10.1387C8.24091 10.1387 8.24091 10.1386 8.24091 10.1386C8.24091 10.1386 8.24091 10.1385 8.24091 10.1385C8.24091 10.1384 8.24091 10.1384 8.24091 10.1384C8.24091 10.1383 8.24091 10.1383 8.24091 10.1382C8.24091 10.1382 8.24091 10.1382 8.24091 10.1381C8.24091 10.1381 8.24091 10.138 8.24091 10.138C8.24091 10.138 8.24091 10.1379 8.24091 10.1379C8.24091 10.1378 8.24091 10.1378 8.24091 10.1378C8.24091 10.1377 8.24091 10.1377 8.24091 10.1376C8.24091 10.1376 8.24091 10.1376 8.24091 10.1375C8.24091 10.1375 8.24091 10.1374 8.24091 10.1374C8.24091 10.1374 8.24091 10.1373 8.24091 10.1373C8.24091 10.1372 8.24091 10.1372 8.24091 10.1371C8.24091 10.1371 8.24091 10.1371 8.24091 10.137C8.24091 10.137 8.24091 10.1369 8.24091 10.1369C8.24091 10.1369 8.24091 10.1368 8.24091 10.1368C8.24091 10.1367 8.24091 10.1367 8.24091 10.1367C8.24091 10.1366 8.24091 10.1366 8.24091 10.1365C8.24091 10.1365 8.24091 10.1365 8.24091 10.1364C8.24091 10.1364 8.24091 10.1363 8.24091 10.1363C8.24091 10.1362 8.24091 10.1362 8.24091 10.1362C8.24091 10.1361 8.24091 10.1361 8.24091 10.136C8.24091 10.136 8.24091 10.136 8.24091 10.1359C8.24091 10.1359 8.24091 10.1358 8.24091 10.1358C8.24091 10.1357 8.24091 10.1357 8.24091 10.1357C8.24091 10.1356 8.24091 10.1356 8.24091 10.1355C8.24091 10.1355 8.24091 10.1355 8.24091 10.1354C8.24091 10.1354 8.24091 10.1353 8.24091 10.1353C8.24091 10.1352 8.24091 10.1352 8.24091 10.1352C8.24091 10.1351 8.24091 10.1351 8.24091 10.135C8.24091 10.135 8.24091 10.1349 8.24091 10.1349C8.24091 10.1349 8.24091 10.1348 8.24091 10.1348C8.24091 10.1347 8.24091 10.1347 8.24091 10.1346C8.24091 10.1346 8.24091 10.1346 8.24091 10.1345C8.24091 10.1345 8.24091 10.1344 8.24091 10.1344C8.24091 10.1344 8.24091 10.1343 8.24091 10.1343C8.24091 10.1342 8.24091 10.1342 8.24091 10.1341C8.24091 10.1341 8.24091 10.1341 8.24091 10.134C8.24091 10.134 8.24091 10.1339 8.24091 10.1339C8.24091 10.1338 8.24091 10.1338 8.24091 10.1338C8.24091 10.1337 8.24091 10.1337 8.24091 10.1336C8.24091 10.1336 8.24091 10.1335 8.24091 10.1335C8.24091 10.1334 8.24091 10.1334 8.24091 10.1334C8.24091 10.1333 8.24091 10.1333 8.24091 10.1332C8.24091 10.1332 8.24091 10.1331 8.24091 10.1331C8.24091 10.1331 8.24091 10.133 8.24091 10.133C8.24091 10.1329 8.24091 10.1329 8.24091 10.1328C8.24091 10.1328 8.24091 10.1328 8.24091 10.1327C8.24091 10.1327 8.24091 10.1326 8.24091 10.1326C8.24091 10.1325 8.24091 10.1325 8.24091 10.1325C8.24091 10.1324 8.24091 10.1324 8.24091 10.1323C8.24091 10.1323 8.24091 10.1322 8.24091 10.1322C8.24091 10.1321 8.24091 10.1321 8.24091 10.1321C8.24091 10.132 8.24091 10.132 8.24091 10.1319C8.24091 10.1319 8.24091 10.1318 8.24091 10.1318C8.24091 10.1317 8.24091 10.1317 8.24091 10.1317C8.24091 10.1316 8.24091 10.1316 8.24091 10.1315C8.24091 10.1315 8.24091 10.1314 8.24091 10.1314C8.24091 10.1314 8.24091 10.1313 8.24091 10.1313C8.24091 10.1312 8.24091 10.1312 8.24091 10.1311C8.24091 10.1311 8.24091 10.131 8.24091 10.131C8.24091 10.131 8.24091 10.1309 8.24091 10.1309C8.24091 10.1308 8.24091 10.1308 8.24091 10.1307C8.24091 10.1307 8.24091 10.1306 8.24091 10.1306C8.24091 10.1306 8.24091 10.1305 8.24091 10.1305C8.24091 10.1304 8.24091 10.1304 8.24091 10.1303C8.24091 10.1303 8.24091 10.1302 8.24091 10.1302C8.24091 10.1302 8.24091 10.1301 8.24091 10.1301C8.24091 10.13 8.24091 10.13 8.24091 10.1299C8.24091 10.1299 8.24091 10.1298 8.24091 10.1298C8.24091 10.1298 8.24091 10.1297 8.24091 10.1297C8.24091 10.1296 8.24091 10.1296 8.24091 10.1295C8.24091 10.1295 8.24091 10.1294 8.24091 10.1294C8.24091 10.1293 8.24091 10.1293 8.24091 10.1293C8.24091 10.1292 8.24091 10.1292 8.24091 10.1291C8.24091 10.1291 8.24091 10.129 8.24091 10.129C8.24091 10.1289 8.24091 10.1289 8.24091 10.1289C8.24091 10.1288 8.24091 10.1288 8.24091 10.1287C8.24091 10.1287 8.24091 10.1286 8.24091 10.1286C8.24091 10.1285 8.24091 10.1285 8.24091 10.1284C8.24091 10.1284 8.24091 10.1284 8.24091 10.1283C8.24091 10.1283 8.24091 10.1282 8.24091 10.1282C8.24091 10.1281 8.24091 10.1281 8.24091 10.128C8.24091 10.128 8.24091 10.1279 8.24091 10.1279C8.24091 10.1279 8.24091 10.1278 8.24091 10.1278C8.24091 10.1277 8.24091 10.1277 8.24091 10.1276C8.24091 10.1276 8.24091 10.1275 8.24091 10.1275C8.24091 10.1274 8.24091 10.1274 8.24091 10.1274C8.24091 10.1273 8.24091 10.1273 8.24091 10.1272C8.24091 10.1272 8.24091 10.1271 8.24091 10.1271C8.24091 10.127 8.24091 10.127 8.24091 10.1269C8.24091 10.1269 8.24091 10.1269 8.24091 10.1268C8.24091 10.1268 8.24091 10.1267 8.24091 10.1267C8.24091 10.1266 8.24091 10.1266 8.24091 10.1265C8.24091 10.1265 8.24091 10.1264 8.24091 10.1264C8.24091 10.1264 8.24091 10.1263 8.24091 10.1263C8.24091 10.1262 8.24091 10.1262 8.24091 10.1261C8.24091 10.1261 8.24091 10.126 8.24091 10.126C8.24091 10.1259 8.24091 10.1259 8.24091 10.1259C8.24091 10.1258 8.24091 10.1258 8.24091 10.1257C8.24091 10.1257 8.24091 10.1256 8.24091 10.1256C8.24091 10.1255 8.24091 10.1255 8.24091 10.1254C8.24091 10.1254 8.24091 10.1253 8.24091 10.1253C8.24091 10.1253 8.24091 10.1252 8.24091 10.1252C8.24091 10.1251 8.24091 10.1251 8.24091 10.125C8.24091 10.125 8.24091 10.1249 8.24091 10.1249C8.24091 10.1248 8.24091 10.1248 8.24091 10.1247C8.24091 10.1247 8.24091 10.1247 8.24091 10.1246C8.24091 10.1246 8.24091 10.1245 8.24091 10.1245C8.24091 10.1244 8.24091 10.1244 8.24091 10.1243C8.24091 10.1243 8.24091 10.1242 8.24091 10.1242C8.24091 10.1242 8.24091 10.1241 8.24091 10.1241C8.24091 10.124 8.24091 10.124 8.24091 10.1239C8.24091 10.1239 8.24091 10.1238 8.24091 10.1238C8.24091 10.1237 8.24091 10.1237 8.24091 10.1236C8.24091 10.1236 8.24091 10.1236 8.24091 10.1235C8.24091 10.1235 8.24091 10.1234 8.24091 10.1234C8.24091 10.1233 8.24091 10.1233 8.24091 10.1232C8.24091 10.1232 8.24091 10.1231 8.24091 10.1231C8.24091 10.123 8.24091 10.123 8.24091 10.123C8.24091 10.1229 8.24091 10.1229 8.24091 10.1228C8.24091 10.1228 8.24091 10.1227 8.24091 10.1227C8.24091 10.1226 8.24091 10.1226 8.24091 10.1225C8.24091 10.1225 8.24091 10.1224 8.24091 10.1224C8.24091 10.1224 8.24091 10.1223 8.24091 10.1223C8.24091 10.1222 8.24091 10.1222 8.24091 10.1221C8.24091 10.1221 8.24091 10.122 8.24091 10.122C8.24091 10.1219 8.24091 10.1219 8.24091 10.1218C8.24091 10.1218 8.24091 10.1218 8.24091 10.1217C8.24091 10.1217 8.24091 10.1216 8.24091 10.1216C8.24091 10.1215 8.24091 10.1215 8.24091 10.1214C8.24091 10.1214 8.24091 10.1213 8.24091 10.1213C8.24091 10.1212 8.24091 10.1212 8.24091 10.1212C8.24091 10.1211 8.24091 10.1211 8.24091 10.121C8.24091 10.121 8.24091 10.1209 8.24091 10.1209C8.24091 10.1208 8.24091 10.1208 8.24091 10.1207C8.24091 10.1207 8.24091 10.1206 8.24091 10.1206C8.24091 10.1206 8.24091 10.1205 8.24091 10.1205C8.24091 10.1204 8.24091 10.1204 8.24091 10.1203C8.24091 10.1203 8.24091 10.1202 8.24091 10.1202C8.24091 10.1201 8.24091 10.1201 8.24091 10.12C8.24091 10.12 8.24091 10.12 8.24091 10.1199C8.24091 10.1199 8.24091 10.1198 8.24091 10.1198C8.24091 10.1197 8.24091 10.1197 8.24091 10.1196C8.24091 10.1196 8.24091 10.1195 8.24091 10.1195C8.24091 10.1194 8.24091 10.1194 8.24091 10.1194C8.24091 10.1193 8.24091 10.1193 8.24091 10.1192C8.24091 10.1192 8.24091 10.1191 8.24091 10.1191C8.24091 10.119 8.24091 10.119 8.24091 10.1189C8.24091 10.1189 8.24091 10.1188 8.24091 10.1188C8.24091 10.1188 8.24091 10.1187 8.24091 10.1187C8.24091 10.1186 8.24091 10.1186 8.24091 10.1185C8.24091 10.1185 8.24091 10.1184 8.24091 10.1184C8.24091 10.1183 8.24091 10.1183 8.24091 10.1183C8.24091 10.1182 8.24091 10.1182 8.24091 10.1181C8.24091 10.1181 8.24091 10.118 8.24091 10.118C8.24091 10.1179 8.24091 10.1179 8.24091 10.1178C8.24091 10.1178 8.24091 10.1177 8.24091 10.1177C8.24091 10.1177 8.24091 10.1176 8.24091 10.1176C8.24091 10.1175 8.24091 10.1175 8.24091 10.1174C8.24091 10.1174 8.24091 10.1173 8.24091 10.1173C8.24091 10.1172 8.24091 10.1172 8.24091 10.1172C8.24091 10.1171 8.24091 10.1171 8.24091 10.117C8.24091 10.117 8.24091 10.1169 8.24091 10.1169C8.24091 10.1168 8.24091 10.1168 8.24091 10.1167C8.24091 10.1167 8.24091 10.1166 8.24091 10.1166C8.24091 10.1166 8.24091 10.1165 8.24091 10.1165C8.24091 10.1164 8.24091 10.1164 8.24091 10.1163C8.24091 10.1163 8.24091 10.1162 8.24091 10.1162C8.24091 10.1161 8.24091 10.1161 8.24091 10.1161C8.24091 10.116 8.24091 10.116 8.24091 10.1159C8.24091 10.1159 8.24091 10.1158 8.24091 10.1158C8.24091 10.1157 8.24091 10.1157 8.24091 10.1156C8.24091 10.1156 8.24091 10.1156 8.24091 10.1155C8.24091 10.1155 8.24091 10.1154 8.24091 10.1154C8.24091 10.1153 8.24091 10.1153 8.24091 10.1152C8.24091 10.1152 8.24091 10.1151 8.24091 10.1151C8.24091 10.1151 8.24091 10.115 8.24091 10.115C8.24091 10.1149 8.24091 10.1149 8.24091 10.1148C8.24091 10.1148 8.24091 10.1147 8.24091 10.1147C8.24091 10.1147 8.24091 10.1146 8.24091 10.1146C8.24091 10.1145 8.24091 10.1145 8.24091 10.1144C8.24091 10.1144 8.24091 10.1143 8.24091 10.1143C8.24091 10.1142 8.24091 10.1142 8.24091 10.1142C8.24091 10.1141 8.24091 10.1141 8.24091 10.114C8.24091 10.114 8.24091 10.1139 8.24091 10.1139C8.24091 10.1138 8.24091 10.1138 8.24091 10.1138C8.24091 10.1137 8.24091 10.1137 8.24091 10.1136C8.24091 10.1136 8.24091 10.1135 8.24091 10.1135C8.24091 10.1134 8.24091 10.1134 8.24091 10.1133C8.24091 10.1133 8.24091 10.1133 8.24091 10.1132C8.24091 10.1132 8.24091 10.1131 8.24091 10.1131C8.24091 10.113 8.24091 10.113 8.24091 10.1129C8.24091 10.1129 8.24091 10.1129 8.24091 10.1128C8.24091 10.1128 8.24091 10.1127 8.24091 10.1127C8.24091 10.1126 8.24091 10.1126 8.24091 10.1125C8.24091 10.1125 8.24091 10.1125 8.24091 10.1124C8.24091 10.1124 8.24091 10.1123 8.24091 10.1123C8.24091 10.1122 8.24091 10.1122 8.24091 10.1121C8.24091 10.1121 8.24091 10.1121 8.24091 10.112C8.24091 10.112 8.24091 10.1119 8.24091 10.1119C8.24091 10.1118 8.24091 10.1118 8.24091 10.1117C8.24091 10.1117 8.24091 10.1117 8.24091 10.1116C8.24091 10.1116 8.24091 10.1115 8.24091 10.1115C8.24091 10.1114 8.24091 10.1114 8.24091 10.1114C8.24091 10.1113 8.24091 10.1113 8.24091 10.1112C8.24091 10.1112 8.24091 10.1111 8.24091 10.1111C8.24091 10.111 8.24091 10.111 8.24091 10.111C8.24091 10.1109 8.24091 10.1109 8.24091 10.1108C8.24091 10.1108 8.24091 10.1107 8.24091 10.1107C8.24091 10.1107 8.24091 10.1106 8.24091 10.1106C8.24091 10.1105 8.24091 10.1105 8.24091 10.1104C8.24091 10.1104 8.24091 10.1103 8.24091 10.1103C8.24091 10.1103 8.24091 10.1102 8.24091 10.1102C8.24091 10.1101 8.24091 10.1101 8.24091 10.11C8.24091 10.11 8.24091 10.11 8.24091 10.1099C8.24091 10.1099 8.24091 10.1098 8.24091 10.1098C8.24091 10.1097 8.24091 10.1097 8.24091 10.1097C8.24091 10.1096 8.24091 10.1096 8.24091 10.1095C8.24091 10.1095 8.24091 10.1094 8.24091 10.1094C8.24091 10.1094 8.24091 10.1093 8.24091 10.1093C8.24091 10.1092 8.24091 10.1092 8.24091 10.1091C8.24091 10.1091 8.24091 10.1091 8.24091 10.109C8.24091 10.109 8.24091 10.1089 8.24091 10.1089C8.24091 10.1088 8.24091 10.1088 8.24091 10.1088C8.24091 10.1087 8.24091 10.1087 8.24091 10.1086C8.24091 10.1086 8.24091 10.1085 8.24091 10.1085C8.24091 10.1085 8.24091 10.1084 8.24091 10.1084C8.24091 10.1083 8.24091 10.1083 8.24091 10.1083C8.24091 10.1082 8.24091 10.1082 8.24091 10.1081C8.24091 10.1081 8.24091 10.108 8.24091 10.108C8.24091 10.108 8.24091 10.1079 8.24091 10.1079C8.24091 10.1078 8.24091 10.1078 8.24091 10.1077C8.24091 10.1077 8.24091 10.1077 8.24091 10.1076C8.24091 10.1076 8.24091 10.1075 8.24091 10.1075C8.24091 10.1075 8.24091 10.1074 8.24091 10.1074C8.24091 10.1073 8.24091 10.1073 8.24091 10.1072C8.24091 10.1072 8.24091 10.1072 8.24091 10.1071C8.24091 10.1071 8.24091 10.107 8.24091 10.107C8.24091 10.107 8.24091 10.1069 8.24091 10.1069C8.24091 10.1068 8.24091 10.1068 8.24091 10.1067C8.24091 10.1067 8.24091 10.1067 8.24091 10.1066C8.24091 10.1066 8.24091 10.1065 8.24091 10.1065C8.24091 10.1065 8.24091 10.1064 8.24091 10.1064C8.24091 10.1063 8.24091 10.1063 8.24091 10.1063C8.24091 10.1062 8.24091 10.1062 8.24091 10.1061C8.24091 10.1061 8.24091 10.1061 8.24091 10.106C8.24091 10.106 8.24091 10.1059 8.24091 10.1059C8.24091 10.1058 8.24091 10.1058 8.24091 10.1058C8.24091 10.1057 8.24091 10.1057 8.24091 10.1056C8.24091 10.1056 8.24091 10.1056 8.24091 10.1055C8.24091 10.1055 8.24091 10.1054 8.24091 10.1054C8.24091 10.1054 8.24091 10.1053 8.24091 10.1053C8.24091 10.1052 8.24091 10.1052 8.24091 10.1052C8.24091 10.1051 8.24091 10.1051 8.24091 10.105C8.24091 10.105 8.24091 10.105 8.24091 10.1049C8.24091 10.1049 8.24091 10.1048 8.24091 10.1048C8.24091 10.1048 8.24091 10.1047 8.24091 10.1047C8.24091 10.1046 8.24091 10.1046 8.24091 10.1046C8.24091 10.1045 8.24091 10.1045 8.24091 10.1044C8.24091 10.1044 8.24091 10.1044 8.24091 10.1043C8.24091 10.1043 8.24091 10.1043 8.24091 10.1042C8.24091 10.1042 8.24091 10.1041 8.24091 10.1041C8.24091 10.1041 8.24091 10.104 8.24091 10.104C8.24091 10.1039 8.24091 10.1039 8.24091 10.1039C8.24091 10.1038 8.24091 10.1038 8.24091 10.1037C8.24091 10.1037 8.24091 10.1037 8.24091 10.1036C8.24091 10.1036 8.24091 10.1036 8.24091 10.1035C8.24091 10.1035 8.24091 10.1034 8.24091 10.1034C8.24091 10.1034 8.24091 10.1033 8.24091 10.1033C8.24091 10.1032 8.24091 10.1032 8.24091 10.1032C8.24091 10.1031 8.24091 10.1031 8.24091 10.1031C8.24091 10.103 8.24091 10.103 8.24091 10.1029C8.24091 10.1029 8.24091 10.1029 8.24091 10.1028C8.24091 10.1028 8.24091 10.1027 8.24091 10.1027C8.24091 10.1027 8.24091 10.1026 8.24091 10.1026C8.24091 10.1026 8.24091 10.1025 8.24091 10.1025C8.24091 10.1024 8.24091 10.1024 8.24091 10.1024C8.24091 10.1023 8.24091 10.1023 8.24091 10.1023C8.24091 10.1022 8.24091 10.1022 8.24091 10.1021C8.24091 10.1021 8.24091 10.1021 8.24091 10.102C8.24091 10.102 8.24091 10.102 8.24091 10.1019C8.24091 10.1019 8.24091 10.1019 8.24091 10.1018C8.24091 10.1018 8.24091 10.1017 8.24091 10.1017C8.24091 10.1017 8.24091 10.1016 8.24091 10.1016C8.24091 10.1016 8.24091 10.1015 8.24091 10.1015C8.24091 10.1015 8.24091 10.1014 8.24091 10.1014C8.24091 10.1013 8.24091 10.1013 8.24091 10.1013C8.24091 10.1012 8.24091 10.1012 8.24091 10.1012C8.24091 10.1011 8.24091 10.1011 8.24091 10.1011C8.24091 10.101 8.24091 10.101 8.24091 10.1009C8.24091 10.1009 8.24091 10.1009 8.24091 10.1008C8.24091 10.1008 8.24091 10.1008 8.24091 10.1007C8.24091 10.1007 8.24091 10.1007 8.24091 10.1006C8.24091 10.1006 8.24091 10.1006 8.24091 10.1005C8.24091 10.1005 8.24091 10.1004 8.24091 10.1004C8.24091 10.1004 8.24091 10.1003 8.24091 10.1003C8.24091 10.1003 8.24091 10.1002 8.24091 10.1002C8.24091 10.1002 8.24091 10.1001 8.24091 10.1001C8.24091 10.1001 8.24091 10.1 8.24091 10.1H7.94091C7.94091 10.1 7.94091 10.1001 7.94091 10.1001C7.94091 10.1001 7.94091 10.1002 7.94091 10.1002C7.94091 10.1002 7.94091 10.1003 7.94091 10.1003C7.94091 10.1003 7.94091 10.1004 7.94091 10.1004C7.94091 10.1004 7.94091 10.1005 7.94091 10.1005C7.94091 10.1006 7.94091 10.1006 7.94091 10.1006C7.94091 10.1007 7.94091 10.1007 7.94091 10.1007C7.94091 10.1008 7.94091 10.1008 7.94091 10.1008C7.94091 10.1009 7.94091 10.1009 7.94091 10.1009C7.94091 10.101 7.94091 10.101 7.94091 10.1011C7.94091 10.1011 7.94091 10.1011 7.94091 10.1012C7.94091 10.1012 7.94091 10.1012 7.94091 10.1013C7.94091 10.1013 7.94091 10.1013 7.94091 10.1014C7.94091 10.1014 7.94091 10.1015 7.94091 10.1015C7.94091 10.1015 7.94091 10.1016 7.94091 10.1016C7.94091 10.1016 7.94091 10.1017 7.94091 10.1017C7.94091 10.1017 7.94091 10.1018 7.94091 10.1018C7.94091 10.1019 7.94091 10.1019 7.94091 10.1019C7.94091 10.102 7.94091 10.102 7.94091 10.102C7.94091 10.1021 7.94091 10.1021 7.94091 10.1021C7.94091 10.1022 7.94091 10.1022 7.94091 10.1023C7.94091 10.1023 7.94091 10.1023 7.94091 10.1024C7.94091 10.1024 7.94091 10.1024 7.94091 10.1025C7.94091 10.1025 7.94091 10.1026 7.94091 10.1026C7.94091 10.1026 7.94091 10.1027 7.94091 10.1027C7.94091 10.1027 7.94091 10.1028 7.94091 10.1028C7.94091 10.1029 7.94091 10.1029 7.94091 10.1029C7.94091 10.103 7.94091 10.103 7.94091 10.1031C7.94091 10.1031 7.94091 10.1031 7.94091 10.1032C7.94091 10.1032 7.94091 10.1032 7.94091 10.1033C7.94091 10.1033 7.94091 10.1034 7.94091 10.1034C7.94091 10.1034 7.94091 10.1035 7.94091 10.1035C7.94091 10.1036 7.94091 10.1036 7.94091 10.1036C7.94091 10.1037 7.94091 10.1037 7.94091 10.1037C7.94091 10.1038 7.94091 10.1038 7.94091 10.1039C7.94091 10.1039 7.94091 10.1039 7.94091 10.104C7.94091 10.104 7.94091 10.1041 7.94091 10.1041C7.94091 10.1041 7.94091 10.1042 7.94091 10.1042C7.94091 10.1043 7.94091 10.1043 7.94091 10.1043C7.94091 10.1044 7.94091 10.1044 7.94091 10.1044C7.94091 10.1045 7.94091 10.1045 7.94091 10.1046C7.94091 10.1046 7.94091 10.1046 7.94091 10.1047C7.94091 10.1047 7.94091 10.1048 7.94091 10.1048C7.94091 10.1048 7.94091 10.1049 7.94091 10.1049C7.94091 10.105 7.94091 10.105 7.94091 10.105C7.94091 10.1051 7.94091 10.1051 7.94091 10.1052C7.94091 10.1052 7.94091 10.1052 7.94091 10.1053C7.94091 10.1053 7.94091 10.1054 7.94091 10.1054C7.94091 10.1054 7.94091 10.1055 7.94091 10.1055C7.94091 10.1056 7.94091 10.1056 7.94091 10.1056C7.94091 10.1057 7.94091 10.1057 7.94091 10.1058C7.94091 10.1058 7.94091 10.1058 7.94091 10.1059C7.94091 10.1059 7.94091 10.106 7.94091 10.106C7.94091 10.1061 7.94091 10.1061 7.94091 10.1061C7.94091 10.1062 7.94091 10.1062 7.94091 10.1063C7.94091 10.1063 7.94091 10.1063 7.94091 10.1064C7.94091 10.1064 7.94091 10.1065 7.94091 10.1065C7.94091 10.1065 7.94091 10.1066 7.94091 10.1066C7.94091 10.1067 7.94091 10.1067 7.94091 10.1067C7.94091 10.1068 7.94091 10.1068 7.94091 10.1069C7.94091 10.1069 7.94091 10.107 7.94091 10.107C7.94091 10.107 7.94091 10.1071 7.94091 10.1071C7.94091 10.1072 7.94091 10.1072 7.94091 10.1072C7.94091 10.1073 7.94091 10.1073 7.94091 10.1074C7.94091 10.1074 7.94091 10.1075 7.94091 10.1075C7.94091 10.1075 7.94091 10.1076 7.94091 10.1076C7.94091 10.1077 7.94091 10.1077 7.94091 10.1077C7.94091 10.1078 7.94091 10.1078 7.94091 10.1079C7.94091 10.1079 7.94091 10.108 7.94091 10.108C7.94091 10.108 7.94091 10.1081 7.94091 10.1081C7.94091 10.1082 7.94091 10.1082 7.94091 10.1083C7.94091 10.1083 7.94091 10.1083 7.94091 10.1084C7.94091 10.1084 7.94091 10.1085 7.94091 10.1085C7.94091 10.1085 7.94091 10.1086 7.94091 10.1086C7.94091 10.1087 7.94091 10.1087 7.94091 10.1088C7.94091 10.1088 7.94091 10.1088 7.94091 10.1089C7.94091 10.1089 7.94091 10.109 7.94091 10.109C7.94091 10.1091 7.94091 10.1091 7.94091 10.1091C7.94091 10.1092 7.94091 10.1092 7.94091 10.1093C7.94091 10.1093 7.94091 10.1094 7.94091 10.1094C7.94091 10.1094 7.94091 10.1095 7.94091 10.1095C7.94091 10.1096 7.94091 10.1096 7.94091 10.1097C7.94091 10.1097 7.94091 10.1097 7.94091 10.1098C7.94091 10.1098 7.94091 10.1099 7.94091 10.1099C7.94091 10.11 7.94091 10.11 7.94091 10.11C7.94091 10.1101 7.94091 10.1101 7.94091 10.1102C7.94091 10.1102 7.94091 10.1103 7.94091 10.1103C7.94091 10.1103 7.94091 10.1104 7.94091 10.1104C7.94091 10.1105 7.94091 10.1105 7.94091 10.1106C7.94091 10.1106 7.94091 10.1107 7.94091 10.1107C7.94091 10.1107 7.94091 10.1108 7.94091 10.1108C7.94091 10.1109 7.94091 10.1109 7.94091 10.111C7.94091 10.111 7.94091 10.111 7.94091 10.1111C7.94091 10.1111 7.94091 10.1112 7.94091 10.1112C7.94091 10.1113 7.94091 10.1113 7.94091 10.1114C7.94091 10.1114 7.94091 10.1114 7.94091 10.1115C7.94091 10.1115 7.94091 10.1116 7.94091 10.1116C7.94091 10.1117 7.94091 10.1117 7.94091 10.1117C7.94091 10.1118 7.94091 10.1118 7.94091 10.1119C7.94091 10.1119 7.94091 10.112 7.94091 10.112C7.94091 10.1121 7.94091 10.1121 7.94091 10.1121C7.94091 10.1122 7.94091 10.1122 7.94091 10.1123C7.94091 10.1123 7.94091 10.1124 7.94091 10.1124C7.94091 10.1125 7.94091 10.1125 7.94091 10.1125C7.94091 10.1126 7.94091 10.1126 7.94091 10.1127C7.94091 10.1127 7.94091 10.1128 7.94091 10.1128C7.94091 10.1129 7.94091 10.1129 7.94091 10.1129C7.94091 10.113 7.94091 10.113 7.94091 10.1131C7.94091 10.1131 7.94091 10.1132 7.94091 10.1132C7.94091 10.1133 7.94091 10.1133 7.94091 10.1133C7.94091 10.1134 7.94091 10.1134 7.94091 10.1135C7.94091 10.1135 7.94091 10.1136 7.94091 10.1136C7.94091 10.1137 7.94091 10.1137 7.94091 10.1138C7.94091 10.1138 7.94091 10.1138 7.94091 10.1139C7.94091 10.1139 7.94091 10.114 7.94091 10.114C7.94091 10.1141 7.94091 10.1141 7.94091 10.1142C7.94091 10.1142 7.94091 10.1142 7.94091 10.1143C7.94091 10.1143 7.94091 10.1144 7.94091 10.1144C7.94091 10.1145 7.94091 10.1145 7.94091 10.1146C7.94091 10.1146 7.94091 10.1147 7.94091 10.1147C7.94091 10.1147 7.94091 10.1148 7.94091 10.1148C7.94091 10.1149 7.94091 10.1149 7.94091 10.115C7.94091 10.115 7.94091 10.1151 7.94091 10.1151C7.94091 10.1151 7.94091 10.1152 7.94091 10.1152C7.94091 10.1153 7.94091 10.1153 7.94091 10.1154C7.94091 10.1154 7.94091 10.1155 7.94091 10.1155C7.94091 10.1156 7.94091 10.1156 7.94091 10.1156C7.94091 10.1157 7.94091 10.1157 7.94091 10.1158C7.94091 10.1158 7.94091 10.1159 7.94091 10.1159C7.94091 10.116 7.94091 10.116 7.94091 10.1161C7.94091 10.1161 7.94091 10.1161 7.94091 10.1162C7.94091 10.1162 7.94091 10.1163 7.94091 10.1163C7.94091 10.1164 7.94091 10.1164 7.94091 10.1165C7.94091 10.1165 7.94091 10.1166 7.94091 10.1166C7.94091 10.1166 7.94091 10.1167 7.94091 10.1167C7.94091 10.1168 7.94091 10.1168 7.94091 10.1169C7.94091 10.1169 7.94091 10.117 7.94091 10.117C7.94091 10.1171 7.94091 10.1171 7.94091 10.1172C7.94091 10.1172 7.94091 10.1172 7.94091 10.1173C7.94091 10.1173 7.94091 10.1174 7.94091 10.1174C7.94091 10.1175 7.94091 10.1175 7.94091 10.1176C7.94091 10.1176 7.94091 10.1177 7.94091 10.1177C7.94091 10.1177 7.94091 10.1178 7.94091 10.1178C7.94091 10.1179 7.94091 10.1179 7.94091 10.118C7.94091 10.118 7.94091 10.1181 7.94091 10.1181C7.94091 10.1182 7.94091 10.1182 7.94091 10.1183C7.94091 10.1183 7.94091 10.1183 7.94091 10.1184C7.94091 10.1184 7.94091 10.1185 7.94091 10.1185C7.94091 10.1186 7.94091 10.1186 7.94091 10.1187C7.94091 10.1187 7.94091 10.1188 7.94091 10.1188C7.94091 10.1188 7.94091 10.1189 7.94091 10.1189C7.94091 10.119 7.94091 10.119 7.94091 10.1191C7.94091 10.1191 7.94091 10.1192 7.94091 10.1192C7.94091 10.1193 7.94091 10.1193 7.94091 10.1194C7.94091 10.1194 7.94091 10.1194 7.94091 10.1195C7.94091 10.1195 7.94091 10.1196 7.94091 10.1196C7.94091 10.1197 7.94091 10.1197 7.94091 10.1198C7.94091 10.1198 7.94091 10.1199 7.94091 10.1199C7.94091 10.12 7.94091 10.12 7.94091 10.12C7.94091 10.1201 7.94091 10.1201 7.94091 10.1202C7.94091 10.1202 7.94091 10.1203 7.94091 10.1203C7.94091 10.1204 7.94091 10.1204 7.94091 10.1205C7.94091 10.1205 7.94091 10.1206 7.94091 10.1206C7.94091 10.1206 7.94091 10.1207 7.94091 10.1207C7.94091 10.1208 7.94091 10.1208 7.94091 10.1209C7.94091 10.1209 7.94091 10.121 7.94091 10.121C7.94091 10.1211 7.94091 10.1211 7.94091 10.1212C7.94091 10.1212 7.94091 10.1212 7.94091 10.1213C7.94091 10.1213 7.94091 10.1214 7.94091 10.1214C7.94091 10.1215 7.94091 10.1215 7.94091 10.1216C7.94091 10.1216 7.94091 10.1217 7.94091 10.1217C7.94091 10.1218 7.94091 10.1218 7.94091 10.1218C7.94091 10.1219 7.94091 10.1219 7.94091 10.122C7.94091 10.122 7.94091 10.1221 7.94091 10.1221C7.94091 10.1222 7.94091 10.1222 7.94091 10.1223C7.94091 10.1223 7.94091 10.1224 7.94091 10.1224C7.94091 10.1224 7.94091 10.1225 7.94091 10.1225C7.94091 10.1226 7.94091 10.1226 7.94091 10.1227C7.94091 10.1227 7.94091 10.1228 7.94091 10.1228C7.94091 10.1229 7.94091 10.1229 7.94091 10.123C7.94091 10.123 7.94091 10.123 7.94091 10.1231C7.94091 10.1231 7.94091 10.1232 7.94091 10.1232C7.94091 10.1233 7.94091 10.1233 7.94091 10.1234C7.94091 10.1234 7.94091 10.1235 7.94091 10.1235C7.94091 10.1236 7.94091 10.1236 7.94091 10.1236C7.94091 10.1237 7.94091 10.1237 7.94091 10.1238C7.94091 10.1238 7.94091 10.1239 7.94091 10.1239C7.94091 10.124 7.94091 10.124 7.94091 10.1241C7.94091 10.1241 7.94091 10.1242 7.94091 10.1242C7.94091 10.1242 7.94091 10.1243 7.94091 10.1243C7.94091 10.1244 7.94091 10.1244 7.94091 10.1245C7.94091 10.1245 7.94091 10.1246 7.94091 10.1246C7.94091 10.1247 7.94091 10.1247 7.94091 10.1247C7.94091 10.1248 7.94091 10.1248 7.94091 10.1249C7.94091 10.1249 7.94091 10.125 7.94091 10.125C7.94091 10.1251 7.94091 10.1251 7.94091 10.1252C7.94091 10.1252 7.94091 10.1253 7.94091 10.1253C7.94091 10.1253 7.94091 10.1254 7.94091 10.1254C7.94091 10.1255 7.94091 10.1255 7.94091 10.1256C7.94091 10.1256 7.94091 10.1257 7.94091 10.1257C7.94091 10.1258 7.94091 10.1258 7.94091 10.1259C7.94091 10.1259 7.94091 10.1259 7.94091 10.126C7.94091 10.126 7.94091 10.1261 7.94091 10.1261C7.94091 10.1262 7.94091 10.1262 7.94091 10.1263C7.94091 10.1263 7.94091 10.1264 7.94091 10.1264C7.94091 10.1264 7.94091 10.1265 7.94091 10.1265C7.94091 10.1266 7.94091 10.1266 7.94091 10.1267C7.94091 10.1267 7.94091 10.1268 7.94091 10.1268C7.94091 10.1269 7.94091 10.1269 7.94091 10.1269C7.94091 10.127 7.94091 10.127 7.94091 10.1271C7.94091 10.1271 7.94091 10.1272 7.94091 10.1272C7.94091 10.1273 7.94091 10.1273 7.94091 10.1274C7.94091 10.1274 7.94091 10.1274 7.94091 10.1275C7.94091 10.1275 7.94091 10.1276 7.94091 10.1276C7.94091 10.1277 7.94091 10.1277 7.94091 10.1278C7.94091 10.1278 7.94091 10.1279 7.94091 10.1279C7.94091 10.1279 7.94091 10.128 7.94091 10.128C7.94091 10.1281 7.94091 10.1281 7.94091 10.1282C7.94091 10.1282 7.94091 10.1283 7.94091 10.1283C7.94091 10.1284 7.94091 10.1284 7.94091 10.1284C7.94091 10.1285 7.94091 10.1285 7.94091 10.1286C7.94091 10.1286 7.94091 10.1287 7.94091 10.1287C7.94091 10.1288 7.94091 10.1288 7.94091 10.1289C7.94091 10.1289 7.94091 10.1289 7.94091 10.129C7.94091 10.129 7.94091 10.1291 7.94091 10.1291C7.94091 10.1292 7.94091 10.1292 7.94091 10.1293C7.94091 10.1293 7.94091 10.1293 7.94091 10.1294C7.94091 10.1294 7.94091 10.1295 7.94091 10.1295C7.94091 10.1296 7.94091 10.1296 7.94091 10.1297C7.94091 10.1297 7.94091 10.1298 7.94091 10.1298C7.94091 10.1298 7.94091 10.1299 7.94091 10.1299C7.94091 10.13 7.94091 10.13 7.94091 10.1301C7.94091 10.1301 7.94091 10.1302 7.94091 10.1302C7.94091 10.1302 7.94091 10.1303 7.94091 10.1303C7.94091 10.1304 7.94091 10.1304 7.94091 10.1305C7.94091 10.1305 7.94091 10.1306 7.94091 10.1306C7.94091 10.1306 7.94091 10.1307 7.94091 10.1307C7.94091 10.1308 7.94091 10.1308 7.94091 10.1309C7.94091 10.1309 7.94091 10.131 7.94091 10.131C7.94091 10.131 7.94091 10.1311 7.94091 10.1311C7.94091 10.1312 7.94091 10.1312 7.94091 10.1313C7.94091 10.1313 7.94091 10.1314 7.94091 10.1314C7.94091 10.1314 7.94091 10.1315 7.94091 10.1315C7.94091 10.1316 7.94091 10.1316 7.94091 10.1317C7.94091 10.1317 7.94091 10.1317 7.94091 10.1318C7.94091 10.1318 7.94091 10.1319 7.94091 10.1319C7.94091 10.132 7.94091 10.132 7.94091 10.1321C7.94091 10.1321 7.94091 10.1321 7.94091 10.1322C7.94091 10.1322 7.94091 10.1323 7.94091 10.1323C7.94091 10.1324 7.94091 10.1324 7.94091 10.1325C7.94091 10.1325 7.94091 10.1325 7.94091 10.1326C7.94091 10.1326 7.94091 10.1327 7.94091 10.1327C7.94091 10.1328 7.94091 10.1328 7.94091 10.1328C7.94091 10.1329 7.94091 10.1329 7.94091 10.133C7.94091 10.133 7.94091 10.1331 7.94091 10.1331C7.94091 10.1331 7.94091 10.1332 7.94091 10.1332C7.94091 10.1333 7.94091 10.1333 7.94091 10.1334C7.94091 10.1334 7.94091 10.1334 7.94091 10.1335C7.94091 10.1335 7.94091 10.1336 7.94091 10.1336C7.94091 10.1337 7.94091 10.1337 7.94091 10.1338C7.94091 10.1338 7.94091 10.1338 7.94091 10.1339C7.94091 10.1339 7.94091 10.134 7.94091 10.134C7.94091 10.1341 7.94091 10.1341 7.94091 10.1341C7.94091 10.1342 7.94091 10.1342 7.94091 10.1343C7.94091 10.1343 7.94091 10.1344 7.94091 10.1344C7.94091 10.1344 7.94091 10.1345 7.94091 10.1345C7.94091 10.1346 7.94091 10.1346 7.94091 10.1346C7.94091 10.1347 7.94091 10.1347 7.94091 10.1348C7.94091 10.1348 7.94091 10.1349 7.94091 10.1349C7.94091 10.1349 7.94091 10.135 7.94091 10.135C7.94091 10.1351 7.94091 10.1351 7.94091 10.1352C7.94091 10.1352 7.94091 10.1352 7.94091 10.1353C7.94091 10.1353 7.94091 10.1354 7.94091 10.1354C7.94091 10.1355 7.94091 10.1355 7.94091 10.1355C7.94091 10.1356 7.94091 10.1356 7.94091 10.1357C7.94091 10.1357 7.94091 10.1357 7.94091 10.1358C7.94091 10.1358 7.94091 10.1359 7.94091 10.1359C7.94091 10.136 7.94091 10.136 7.94091 10.136C7.94091 10.1361 7.94091 10.1361 7.94091 10.1362C7.94091 10.1362 7.94091 10.1362 7.94091 10.1363C7.94091 10.1363 7.94091 10.1364 7.94091 10.1364C7.94091 10.1365 7.94091 10.1365 7.94091 10.1365C7.94091 10.1366 7.94091 10.1366 7.94091 10.1367C7.94091 10.1367 7.94091 10.1367 7.94091 10.1368C7.94091 10.1368 7.94091 10.1369 7.94091 10.1369C7.94091 10.1369 7.94091 10.137 7.94091 10.137C7.94091 10.1371 7.94091 10.1371 7.94091 10.1371C7.94091 10.1372 7.94091 10.1372 7.94091 10.1373C7.94091 10.1373 7.94091 10.1374 7.94091 10.1374C7.94091 10.1374 7.94091 10.1375 7.94091 10.1375C7.94091 10.1376 7.94091 10.1376 7.94091 10.1376C7.94091 10.1377 7.94091 10.1377 7.94091 10.1378C7.94091 10.1378 7.94091 10.1378 7.94091 10.1379C7.94091 10.1379 7.94091 10.138 7.94091 10.138C7.94091 10.138 7.94091 10.1381 7.94091 10.1381C7.94091 10.1382 7.94091 10.1382 7.94091 10.1382C7.94091 10.1383 7.94091 10.1383 7.94091 10.1384C7.94091 10.1384 7.94091 10.1384 7.94091 10.1385C7.94091 10.1385 7.94091 10.1386 7.94091 10.1386C7.94091 10.1386 7.94091 10.1387 7.94091 10.1387C7.94091 10.1388 7.94091 10.1388 7.94091 10.1388C7.94091 10.1389 7.94091 10.1389 7.94091 10.139C7.94091 10.139 7.94091 10.139 7.94091 10.1391C7.94091 10.1391 7.94091 10.1391 7.94091 10.1392C7.94091 10.1392 7.94091 10.1393 7.94091 10.1393C7.94091 10.1393 7.94091 10.1394 7.94091 10.1394C7.94091 10.1395 7.94091 10.1395 7.94091 10.1395C7.94091 10.1396 7.94091 10.1396 7.94091 10.1397C7.94091 10.1397 7.94091 10.1397 7.94091 10.1398C7.94091 10.1398 7.94091 10.1398 7.94091 10.1399C7.94091 10.1399 7.94091 10.14 7.94091 10.14C7.94091 10.14 7.94091 10.1401 7.94091 10.1401C7.94091 10.1402 7.94091 10.1402 7.94091 10.1402C7.94091 10.1403 7.94091 10.1403 7.94091 10.1403C7.94091 10.1404 7.94091 10.1404 7.94091 10.1405C7.94091 10.1405 7.94091 10.1405 7.94091 10.1406C7.94091 10.1406 7.94091 10.1406 7.94091 10.1407C7.94091 10.1407 7.94091 10.1408 7.94091 10.1408C7.94091 10.1408 7.94091 10.1409 7.94091 10.1409C7.94091 10.1409 7.94091 10.141 7.94091 10.141C7.94091 10.1411 7.94091 10.1411 7.94091 10.1411C7.94091 10.1412 7.94091 10.1412 7.94091 10.1412C7.94091 10.1413 7.94091 10.1413 7.94091 10.1414C7.94091 10.1414 7.94091 10.1414 7.94091 10.1415C7.94091 10.1415 7.94091 10.1415 7.94091 10.1416C7.94091 10.1416 7.94091 10.1417 7.94091 10.1417C7.94091 10.1417 7.94091 10.1418 7.94091 10.1418C7.94091 10.1418 7.94091 10.1419 7.94091 10.1419C7.94091 10.1419 7.94091 10.142 7.94091 10.142C7.94091 10.1421 7.94091 10.1421 7.94091 10.1421C7.94091 10.1422 7.94091 10.1422 7.94091 10.1422C7.94091 10.1423 7.94091 10.1423 7.94091 10.1423C7.94091 10.1424 7.94091 10.1424 7.94091 10.1424C7.94091 10.1425 7.94091 10.1425 7.94091 10.1426C7.94091 10.1426 7.94091 10.1426 7.94091 10.1427C7.94091 10.1427 7.94091 10.1427 7.94091 10.1428C7.94091 10.1428 7.94091 10.1428 7.94091 10.1429C7.94091 10.1429 7.94091 10.1429 7.94091 10.143C7.94091 10.143 7.94091 10.143 7.94091 10.1431C7.94091 10.1431 7.94091 10.1432 7.94091 10.1432C7.94091 10.1432 7.94091 10.1433 7.94091 10.1433C7.94091 10.1433 7.94091 10.1434 7.94091 10.1434C7.94091 10.1434 7.94091 10.1435 7.94091 10.1435C7.94091 10.1435 7.94091 10.1436 7.94091 10.1436C7.94091 10.1436 7.94091 10.1437 7.94091 10.1437C7.94091 10.1437 7.94091 10.1438 7.94091 10.1438C7.94091 10.1438 7.94091 10.1439 7.94091 10.1439C7.94091 10.1439 7.94091 10.144 7.94091 10.144C7.94091 10.144 7.94091 10.1441 7.94091 10.1441C7.94091 10.1441 7.94091 10.1442 7.94091 10.1442C7.94091 10.1442 7.94091 10.1443 7.94091 10.1443C7.94091 10.1443 7.94091 10.1444 7.94091 10.1444C7.94091 10.1444 7.94091 10.1445 7.94091 10.1445C7.94091 10.1445 7.94091 10.1446 7.94091 10.1446C7.94091 10.1446 7.94091 10.1447 7.94091 10.1447C7.94091 10.1447 7.94091 10.1448 7.94091 10.1448C7.94091 10.1448 7.94091 10.1449 7.94091 10.1449C7.94091 10.1449 7.94091 10.145 7.94091 10.145C7.94091 10.145 7.94091 10.1451 7.94091 10.1451C7.94091 10.1451 7.94091 10.1452 7.94091 10.1452C7.94091 10.1452 7.94091 10.1453 7.94091 10.1453C7.94091 10.1453 7.94091 10.1454 7.94091 10.1454C7.94091 10.1454 7.94091 10.1454 7.94091 10.1455C7.94091 10.1455 7.94091 10.1455 7.94091 10.1456C7.94091 10.1456 7.94091 10.1456 7.94091 10.1457C7.94091 10.1457 7.94091 10.1457 7.94091 10.1458C7.94091 10.1458 7.94091 10.1458 7.94091 10.1459C7.94091 10.1459 7.94091 10.1459 7.94091 10.1459C7.94091 10.146 7.94091 10.146 7.94091 10.146C7.94091 10.1461 7.94091 10.1461 7.94091 10.1461C7.94091 10.1462 7.94091 10.1462 7.94091 10.1462C7.94091 10.1463 7.94091 10.1463 7.94091 10.1463C7.94091 10.1463 7.94091 10.1464 7.94091 10.1464C7.94091 10.1464 7.94091 10.1465 7.94091 10.1465C7.94091 10.1465 7.94091 10.1466 7.94091 10.1466C7.94091 10.1466 7.94091 10.1466 7.94091 10.1467C7.94091 10.1467 7.94091 10.1467 7.94091 10.1468C7.94091 10.1468 7.94091 10.1468 7.94091 10.1468C7.94091 10.1469 7.94091 10.1469 7.94091 10.1469C7.94091 10.147 7.94091 10.147 7.94091 10.147C7.94091 10.147 7.94091 10.1471 7.94091 10.1471C7.94091 10.1471 7.94091 10.1472 7.94091 10.1472C7.94091 10.1472 7.94091 10.1472 7.94091 10.1473C7.94091 10.1473 7.94091 10.1473 7.94091 10.1474C7.94091 10.1474 7.94091 10.1474 7.94091 10.1474C7.94091 10.1475 7.94091 10.1475 7.94091 10.1475C7.94091 10.1476 7.94091 10.1476 7.94091 10.1476C7.94091 10.1476 7.94091 10.1477 7.94091 10.1477C7.94091 10.1477 7.94091 10.1477 7.94091 10.1478C7.94091 10.1478 7.94091 10.1478 7.94091 10.1479C7.94091 10.1479 7.94091 10.1479 7.94091 10.1479C7.94091 10.148 7.94091 10.148 7.94091 10.148C7.94091 10.148 7.94091 10.1481 7.94091 10.1481C7.94091 10.1481 7.94091 10.1482 7.94091 10.1482C7.94091 10.1482 7.94091 10.1482 7.94091 10.1483C7.94091 10.1483 7.94091 10.1483 7.94091 10.1483C7.94091 10.1484 7.94091 10.1484 7.94091 10.1484C7.94091 10.1484 7.94091 10.1485 7.94091 10.1485C7.94091 10.1485 7.94091 10.1485 7.94091 10.1486C7.94091 10.1486 7.94091 10.1486 7.94091 10.1486C7.94091 10.1487 7.94091 10.1487 7.94091 10.1487C7.94091 10.1487 7.94091 10.1488 7.94091 10.1488C7.94091 10.1488 7.94091 10.1488 7.94091 10.1489C7.94091 10.1489 7.94091 10.1489 7.94091 10.1489C7.94091 10.149 7.94091 10.149 7.94091 10.149C7.94091 10.149 7.94091 10.1491 7.94091 10.1491C7.94091 10.1491 7.94091 10.1491 7.94091 10.1492C7.94091 10.1492 7.94091 10.1492 7.94091 10.1492C7.94091 10.1493 7.94091 10.1493 7.94091 10.1493C7.94091 10.1493 7.94091 10.1494 7.94091 10.1494C7.94091 10.1494 7.94091 10.1494 7.94091 10.1494C7.94091 10.1495 7.94091 10.1495 7.94091 10.1495C7.94091 10.1495 7.94091 10.1496 7.94091 10.1496C7.94091 10.1496 7.94091 10.1496 7.94091 10.1497C7.94091 10.1497 7.94091 10.1497 7.94091 10.1497C7.94091 10.1497 7.94091 10.1498 7.94091 10.1498C7.94091 10.1498 7.94091 10.1498 7.94091 10.1499C7.94091 10.1499 7.94091 10.1499 7.94091 10.1499C7.94091 10.1499 7.94091 10.15 7.94091 10.15C7.94091 10.15 7.94091 10.15 7.94091 10.1501C7.94091 10.1501 7.94091 10.1501 7.94091 10.1501C7.94091 10.1501 7.94091 10.1502 7.94091 10.1502C7.94091 10.1502 7.94091 10.1502 7.94091 10.1502C7.94091 10.1503 7.94091 10.1503 7.94091 10.1503C7.94091 10.1503 7.94091 10.1503 7.94091 10.1504C7.94091 10.1504 7.94091 10.1504 7.94091 10.1504C7.94091 10.1504 7.94091 10.1505 7.94091 10.1505C7.94091 10.1505 7.94091 10.1505 7.94091 10.1505C7.94091 10.1506 7.94091 10.1506 7.94091 10.1506C7.94091 10.1506 7.94091 10.1506 7.94091 10.1507C7.94091 10.1507 7.94091 10.1507 7.94091 10.1507C7.94091 10.1507 7.94091 10.1508 7.94091 10.1508C7.94091 10.1508 7.94091 10.1508 7.94091 10.1508C7.94091 10.1509 7.94091 10.1509 7.94091 10.1509C7.94091 10.1509 7.94091 10.1509 7.94091 10.151C7.94091 10.151 7.94091 10.151 7.94091 10.151C7.94091 10.151 7.94091 10.151 7.94091 10.1511C7.94091 10.1511 7.94091 10.1511 7.94091 10.1511C7.94091 10.1511 7.94091 10.1512 7.94091 10.1512C7.94091 10.1512 7.94091 10.1512 7.94091 10.1512C7.94091 10.1512 7.94091 10.1513 7.94091 10.1513C7.94091 10.1513 7.94091 10.1513 7.94091 10.1513C7.94091 10.1513 7.94091 10.1514 7.94091 10.1514C7.94091 10.1514 7.94091 10.1514 7.94091 10.1514C7.94091 10.1514 7.94091 10.1515 7.94091 10.1515C7.94091 10.1515 7.94091 10.1515 7.94091 10.1515C7.94091 10.1515 7.94091 10.1516 7.94091 10.1516C7.94091 10.1516 7.94091 10.1516 7.94091 10.1516C7.94091 10.1516 7.94091 10.1516 7.94091 10.1517C7.94091 10.1517 7.94091 10.1517 7.94091 10.1517C7.94091 10.1517 7.94091 10.1517 7.94091 10.1518C7.94091 10.1518 7.94091 10.1518 7.94091 10.1518C7.94091 10.1518 7.94091 10.1518 7.94091 10.1518C7.94091 10.1519 7.94091 10.1519 7.94091 10.1519C7.94091 10.1519 7.94091 10.1519 7.94091 10.1519C7.94091 10.1519 7.94091 10.152 7.94091 10.152C7.94091 10.152 7.94091 10.152 7.94091 10.152C7.94091 10.152 7.94091 10.152 7.94091 10.1521C7.94091 10.1521 7.94091 10.1521 7.94091 10.1521C7.94091 10.1521 7.94091 10.1521 7.94091 10.1521C7.94091 10.1521 7.94091 10.1522 7.94091 10.1522C7.94091 10.1522 7.94091 10.1522 7.94091 10.1522C7.94091 10.1522 7.94091 10.1522 7.94091 10.1522C7.94091 10.1523 7.94091 10.1523 7.94091 10.1523C7.94091 10.1523 7.94091 10.1523 7.94091 10.1523C7.94091 10.1523 7.94091 10.1523 7.94091 10.1524C7.94091 10.1524 7.94091 10.1524 7.94091 10.1524C7.94091 10.1524 7.94091 10.1524 7.94091 10.1524C7.94091 10.1524 7.94091 10.1524 7.94091 10.1525C7.94091 10.1525 7.94091 10.1525 7.94091 10.1525C7.94091 10.1525 7.94091 10.1525 7.94091 10.1525C7.94091 10.1525 7.94091 10.1525 7.94091 10.1526C7.94091 10.1526 7.94091 10.1526 7.94091 10.1526C7.94091 10.1526 7.94091 10.1526 7.94091 10.1526C7.94091 10.1526 7.94091 10.1526 7.94091 10.1526C7.94091 10.1527 7.94091 10.1527 7.94091 10.1527C7.94091 10.1527 7.94091 10.1527 7.94091 10.1527C7.94091 10.1527 7.94091 10.1527 7.94091 10.1527C7.94091 10.1527 7.94091 10.1527 7.94091 10.1527C7.94091 10.1528 7.94091 10.1528 7.94091 10.1528C7.94091 10.1528 7.94091 10.1528 7.94091 10.1528C7.94091 10.1528 7.94091 10.1528 7.94091 10.1528C7.94091 10.1528 7.94091 10.1528 7.94091 10.1528C7.94091 10.1529 7.94091 10.1529 7.94091 10.1529C7.94091 10.1529 7.94091 10.1529 7.94091 10.1529C7.94091 10.1529 7.94091 10.1529 7.94091 10.1529C7.94091 10.1529 7.94091 10.1529 7.94091 10.1529C7.94091 10.1529 7.94091 10.1529 7.94091 10.1529C7.94091 10.153 7.94091 10.153 7.94091 10.153C7.94091 10.153 7.94091 10.153 7.94091 10.153C7.94091 10.153 7.94091 10.153 7.94091 10.153C7.94091 10.153 7.94091 10.153 7.94091 10.153C7.94091 10.153 7.94091 10.153 7.94091 10.153C7.94091 10.153 7.94091 10.153 7.94091 10.153C7.94091 10.1531 7.94091 10.1531 7.94091 10.1531C7.94091 10.1531 7.94091 10.1531 7.94091 10.1531C7.94091 10.1531 7.94091 10.1531 7.94091 10.1531C7.94091 10.1531 7.94091 10.1531 7.94091 10.1531C7.94091 10.1531 7.94091 10.1531 7.94091 10.1531C7.94091 10.1531 7.94091 10.1531 7.94091 10.1531C7.94091 10.1531 7.94091 10.1531 7.94091 10.1531C7.94091 10.1531 7.94091 10.1531 7.94091 10.1531C7.94091 10.1531 7.94091 10.1531 7.94091 10.1531C7.94091 10.1531 7.94091 10.1531 7.94091 10.1532C7.94091 10.1532 7.94091 10.1532 7.94091 10.1532C7.94091 10.1532 7.94091 10.1532 7.94091 10.1532C7.94091 10.1532 7.94091 10.1532 7.94091 10.1532C7.94091 10.1532 7.94091 10.1532 7.94091 10.1532C7.94091 10.1532 7.94091 10.1532 7.94091 10.1532C7.94091 10.1532 7.94091 10.1532 7.94091 10.1532C7.94091 10.1532 7.94091 10.1532 7.94091 10.1532C7.94091 10.1532 7.94091 10.1532 8.09091 10.1532ZM8.12597 10.2458C9.0403 10.026 9.66145 9.17705 9.59429 8.23906L9.29505 8.26049C9.35174 9.05212 8.82751 9.76861 8.05584 9.95415L8.12597 10.2458ZM9.59429 8.23906C9.52712 7.30107 8.79134 6.5493 7.85502 6.46197L7.82716 6.76068C8.61739 6.83438 9.23836 7.46885 9.29505 8.26049L9.59429 8.23906ZM7.85502 6.46197C6.91869 6.37465 6.05659 6.9774 5.81712 7.88679L6.10723 7.96318C6.30933 7.19568 7.03693 6.68698 7.82716 6.76068L7.85502 6.46197ZM5.81712 7.88679C5.57766 8.79618 6.03111 9.74534 6.88902 10.1305L7.01188 9.85679C6.28784 9.53174 5.90514 8.73068 6.10723 7.96318L5.81712 7.88679ZM6.95045 9.84363H6.93863V10.1436H6.95045V9.84363ZM7.67136 7.93954C7.91487 7.93954 8.11227 8.13694 8.11227 8.38045H8.41227C8.41227 7.97125 8.08056 7.63954 7.67136 7.63954V7.93954ZM8.11227 8.38045C8.11227 8.62395 7.91487 8.82135 7.67136 8.82135V9.12135C8.08056 9.12135 8.41227 8.78964 8.41227 8.38045H8.11227ZM7.67136 8.82135C7.42786 8.82135 7.23046 8.62395 7.23046 8.38045H6.93046C6.93046 8.78964 7.26217 9.12135 7.67136 9.12135V8.82135ZM7.23046 8.38045C7.23046 8.13694 7.42786 7.93954 7.67136 7.93954V7.63954C7.26217 7.63954 6.93046 7.97125 6.93046 8.38045H7.23046Z" fill="white"/>
</svg>
