<svg width="23" height="22" viewBox="0 0 23 22" fill="none" xmlns="http://www.w3.org/2000/svg">
<path fill-rule="evenodd" clip-rule="evenodd" d="M11.0436 3.8253L9.57363 8.3653C9.41078 8.85769 8.95224 9.19153 8.43363 9.1953H3.66363L7.51363 11.9953C7.93237 12.3015 8.10936 12.8405 7.95363 13.3353L6.48363 17.8753L10.3336 15.0653C10.7592 14.7645 11.3281 14.7645 11.7536 15.0653L15.6036 17.8753L14.1336 13.3353C13.9779 12.8405 14.1549 12.3015 14.5736 11.9953L18.4236 9.1953H13.6536C13.135 9.19153 12.6765 8.85769 12.5136 8.3653L11.0436 3.8253ZM9.90363 0.8253C10.0655 0.332851 10.5253 0 11.0436 0C11.562 0 12.0218 0.332851 12.1836 0.8253L14.2436 7.1953H20.8936C21.4121 7.19809 21.8701 7.53348 22.0292 8.02688C22.1884 8.52028 22.0127 9.0601 21.5936 9.3653L16.2136 13.2753L18.2736 19.6053C18.4351 20.1006 18.2585 20.6435 17.8367 20.9491C17.4148 21.2546 16.8439 21.2531 16.4236 20.9453L11.0436 17.0253L5.66363 20.9353C5.24486 21.2393 4.6784 21.2406 4.25824 20.9385C3.83809 20.6365 3.65888 20.0991 3.81363 19.6053L5.87363 13.2853L0.493634 9.3653C0.0745607 9.0601 -0.10113 8.52028 0.0580304 8.02688C0.217191 7.53348 0.675209 7.19809 1.19363 7.1953H7.84363L9.90363 0.8253Z" fill="white"/>
</svg>
