<svg width="89" height="77" viewBox="0 0 89 77" fill="none" xmlns="http://www.w3.org/2000/svg">
<g opacity="0.55" filter="url(#filter0_f)">
<path fill-rule="evenodd" clip-rule="evenodd" d="M45.6038 46.638C45.6038 46.638 46.1167 46.582 46.3794 46.3051C46.6199 46.0513 46.6115 45.5724 46.6115 45.5724C46.6115 45.5724 46.5795 43.336 47.6374 43.0058C48.6799 42.6811 50.0185 45.1685 51.4391 46.125C52.5122 46.8481 53.3267 46.6898 53.3267 46.6898L57.1229 46.638C57.1229 46.638 59.1078 46.5179 58.1668 44.9856C58.0889 44.8601 57.6177 43.8518 55.345 41.7806C52.9639 39.6125 53.2836 39.9631 56.1499 36.2123C57.8957 33.9282 58.5935 32.5337 58.3753 31.9375C58.1682 31.3672 56.8838 31.5186 56.8838 31.5186L52.6109 31.5445C52.6109 31.5445 52.2939 31.5022 52.059 31.64C51.8297 31.7751 51.6809 32.0903 51.6809 32.0903C51.6809 32.0903 51.0054 33.8573 50.1033 35.3609C48.2003 38.5318 47.44 38.6997 47.1286 38.5032C46.4044 38.0434 46.5851 36.6585 46.5851 35.6747C46.5851 32.6006 47.0605 31.3194 45.6607 30.9878C45.1965 30.8773 44.8545 30.805 43.6661 30.7927C42.1412 30.7777 40.8513 30.7982 40.1201 31.1488C39.6336 31.3822 39.2583 31.9034 39.4877 31.9334C39.7698 31.9702 40.4092 32.1026 40.7484 32.5556C41.1863 33.1409 41.171 34.4535 41.171 34.4535C41.171 34.4535 41.4226 38.072 40.583 38.5209C40.0075 38.8293 39.218 38.2003 37.5208 35.3227C36.652 33.8491 35.9959 32.2199 35.9959 32.2199C35.9959 32.2199 35.8694 31.9157 35.6429 31.7519C35.369 31.5541 34.9868 31.4927 34.9868 31.4927L30.9265 31.5186C30.9265 31.5186 30.3163 31.535 30.0925 31.7956C29.8937 32.0262 30.0772 32.5051 30.0772 32.5051C30.0772 32.5051 33.2562 39.8062 36.8563 43.4861C40.1576 46.859 43.9051 46.638 43.9051 46.638H45.6038Z" fill="url(#paint0_linear)"/>
</g>
<path fill-rule="evenodd" clip-rule="evenodd" d="M45.6038 46.638C45.6038 46.638 46.1167 46.582 46.3794 46.3051C46.6199 46.0513 46.6115 45.5724 46.6115 45.5724C46.6115 45.5724 46.5795 43.336 47.6374 43.0058C48.6799 42.6811 50.0185 45.1685 51.4391 46.125C52.5122 46.8481 53.3267 46.6898 53.3267 46.6898L57.1229 46.638C57.1229 46.638 59.1078 46.5179 58.1668 44.9856C58.0889 44.8601 57.6177 43.8518 55.345 41.7806C52.9639 39.6125 53.2836 39.9631 56.1499 36.2123C57.8957 33.9282 58.5935 32.5337 58.3753 31.9375C58.1682 31.3672 56.8838 31.5186 56.8838 31.5186L52.6109 31.5445C52.6109 31.5445 52.2939 31.5022 52.059 31.64C51.8297 31.7751 51.6809 32.0903 51.6809 32.0903C51.6809 32.0903 51.0054 33.8573 50.1033 35.3609C48.2003 38.5318 47.44 38.6997 47.1286 38.5032C46.4044 38.0434 46.5851 36.6585 46.5851 35.6747C46.5851 32.6006 47.0605 31.3194 45.6607 30.9878C45.1965 30.8773 44.8545 30.805 43.6661 30.7927C42.1412 30.7777 40.8513 30.7982 40.1201 31.1488C39.6336 31.3822 39.2583 31.9034 39.4877 31.9334C39.7698 31.9702 40.4092 32.1026 40.7484 32.5556C41.1863 33.1409 41.171 34.4535 41.171 34.4535C41.171 34.4535 41.4226 38.072 40.583 38.5209C40.0075 38.8293 39.218 38.2003 37.5208 35.3227C36.652 33.8491 35.9959 32.2199 35.9959 32.2199C35.9959 32.2199 35.8694 31.9157 35.6429 31.7519C35.369 31.5541 34.9868 31.4927 34.9868 31.4927L30.9265 31.5186C30.9265 31.5186 30.3163 31.535 30.0925 31.7956C29.8937 32.0262 30.0772 32.5051 30.0772 32.5051C30.0772 32.5051 33.2562 39.8062 36.8563 43.4861C40.1576 46.859 43.9051 46.638 43.9051 46.638H45.6038Z" fill="url(#paint1_linear)"/>
<defs>
<filter id="filter0_f" x="0" y="0.789307" width="88.42" height="75.9152" filterUnits="userSpaceOnUse" color-interpolation-filters="sRGB">
<feFlood flood-opacity="0" result="BackgroundImageFix"/>
<feBlend mode="normal" in="SourceGraphic" in2="BackgroundImageFix" result="shape"/>
<feGaussianBlur stdDeviation="15" result="effect1_foregroundBlur"/>
</filter>
<linearGradient id="paint0_linear" x1="30" y1="38.9237" x2="59.6278" y2="38.9237" gradientUnits="userSpaceOnUse">
<stop stop-color="#647AE8"/>
<stop offset="1" stop-color="#54A3F5"/>
</linearGradient>
<linearGradient id="paint1_linear" x1="30" y1="38.9237" x2="59.6278" y2="38.9237" gradientUnits="userSpaceOnUse">
<stop stop-color="#647AE8"/>
<stop offset="1" stop-color="#54A3F5"/>
</linearGradient>
</defs>
</svg>
