<svg width="101" height="92" viewBox="0 0 101 92" fill="none" xmlns="http://www.w3.org/2000/svg">
<g opacity="0.55" filter="url(#filter0_f)">
<path fill-rule="evenodd" clip-rule="evenodd" d="M65.6593 39.6678C65.6593 39.6678 65.3657 37.5478 64.4662 36.6143C63.3247 35.3884 62.0453 35.3827 61.459 35.3115C57.2587 35 50.9583 35 50.9583 35H50.9452C50.9452 35 44.6447 35 40.4444 35.3115C39.8572 35.3827 38.5788 35.3884 37.4363 36.6143C36.5368 37.5478 36.2441 39.6678 36.2441 39.6678C36.2441 39.6678 35.944 42.1579 35.944 44.6471V46.9814C35.944 49.4716 36.2441 51.9607 36.2441 51.9607C36.2441 51.9607 36.5368 54.0807 37.4363 55.0142C38.5788 56.2401 40.0786 56.2016 40.7464 56.3295C43.1477 56.566 50.9517 56.6391 50.9517 56.6391C50.9517 56.6391 57.2587 56.6295 61.459 56.318C62.0453 56.2459 63.3247 56.2401 64.4662 55.0142C65.3657 54.0807 65.6593 51.9607 65.6593 51.9607C65.6593 51.9607 65.9595 49.4716 65.9595 46.9814V44.6471C65.9595 42.1579 65.6593 39.6678 65.6593 39.6678Z" fill="white"/>
<path fill-rule="evenodd" clip-rule="evenodd" d="M65.6593 39.6678C65.6593 39.6678 65.3657 37.5478 64.4662 36.6143C63.3247 35.3884 62.0453 35.3827 61.459 35.3115C57.2587 35 50.9583 35 50.9583 35H50.9452C50.9452 35 44.6447 35 40.4444 35.3115C39.8572 35.3827 38.5788 35.3884 37.4363 36.6143C36.5368 37.5478 36.2441 39.6678 36.2441 39.6678C36.2441 39.6678 35.944 42.1579 35.944 44.6471V46.9814C35.944 49.4716 36.2441 51.9607 36.2441 51.9607C36.2441 51.9607 36.5368 54.0807 37.4363 55.0142C38.5788 56.2401 40.0786 56.2016 40.7464 56.3295C43.1477 56.566 50.9517 56.6391 50.9517 56.6391C50.9517 56.6391 57.2587 56.6295 61.459 56.318C62.0453 56.2459 63.3247 56.2401 64.4662 55.0142C65.3657 54.0807 65.6593 51.9607 65.6593 51.9607C65.6593 51.9607 65.9595 49.4716 65.9595 46.9814V44.6471C65.9595 42.1579 65.6593 39.6678 65.6593 39.6678Z" fill="url(#paint0_linear)"/>
<path fill-rule="evenodd" clip-rule="evenodd" d="M49.4138 49.8241C49.0139 50.0596 48.5094 49.7713 48.5093 49.3071L48.5086 42.3357C48.5086 41.8706 49.0147 41.5823 49.4147 41.8195L55.3136 45.3173C55.7062 45.5501 55.7054 46.1187 55.3121 46.3503L49.4138 49.8241Z" fill="white"/>
</g>
<path fill-rule="evenodd" clip-rule="evenodd" d="M65.6593 39.6678C65.6593 39.6678 65.3657 37.5478 64.4662 36.6143C63.3247 35.3884 62.0453 35.3827 61.459 35.3115C57.2587 35 50.9583 35 50.9583 35H50.9452C50.9452 35 44.6447 35 40.4444 35.3115C39.8572 35.3827 38.5788 35.3884 37.4363 36.6143C36.5368 37.5478 36.2441 39.6678 36.2441 39.6678C36.2441 39.6678 35.944 42.1579 35.944 44.6471V46.9814C35.944 49.4716 36.2441 51.9607 36.2441 51.9607C36.2441 51.9607 36.5368 54.0807 37.4363 55.0142C38.5788 56.2401 40.0786 56.2016 40.7464 56.3295C43.1477 56.566 50.9517 56.6391 50.9517 56.6391C50.9517 56.6391 57.2587 56.6295 61.459 56.318C62.0453 56.2459 63.3247 56.2401 64.4662 55.0142C65.3657 54.0807 65.6593 51.9607 65.6593 51.9607C65.6593 51.9607 65.9595 49.4716 65.9595 46.9814V44.6471C65.9595 42.1579 65.6593 39.6678 65.6593 39.6678Z" fill="white"/>
<path fill-rule="evenodd" clip-rule="evenodd" d="M65.6593 39.6678C65.6593 39.6678 65.3657 37.5478 64.4662 36.6143C63.3247 35.3884 62.0453 35.3827 61.459 35.3115C57.2587 35 50.9583 35 50.9583 35H50.9452C50.9452 35 44.6447 35 40.4444 35.3115C39.8572 35.3827 38.5788 35.3884 37.4363 36.6143C36.5368 37.5478 36.2441 39.6678 36.2441 39.6678C36.2441 39.6678 35.944 42.1579 35.944 44.6471V46.9814C35.944 49.4716 36.2441 51.9607 36.2441 51.9607C36.2441 51.9607 36.5368 54.0807 37.4363 55.0142C38.5788 56.2401 40.0786 56.2016 40.7464 56.3295C43.1477 56.566 50.9517 56.6391 50.9517 56.6391C50.9517 56.6391 57.2587 56.6295 61.459 56.318C62.0453 56.2459 63.3247 56.2401 64.4662 55.0142C65.3657 54.0807 65.6593 51.9607 65.6593 51.9607C65.6593 51.9607 65.9595 49.4716 65.9595 46.9814V44.6471C65.9595 42.1579 65.6593 39.6678 65.6593 39.6678Z" fill="url(#paint1_linear)"/>
<path fill-rule="evenodd" clip-rule="evenodd" d="M49.4138 49.8241C49.0139 50.0596 48.5094 49.7713 48.5093 49.3071L48.5086 42.3357C48.5086 41.8706 49.0147 41.5823 49.4147 41.8195L55.3136 45.3173C55.7062 45.5501 55.7054 46.1187 55.3121 46.3503L49.4138 49.8241Z" fill="white"/>
<defs>
<filter id="filter0_f" x="0.94397" y="0" width="100.015" height="91.6391" filterUnits="userSpaceOnUse" color-interpolation-filters="sRGB">
<feFlood flood-opacity="0" result="BackgroundImageFix"/>
<feBlend mode="normal" in="SourceGraphic" in2="BackgroundImageFix" result="shape"/>
<feGaussianBlur stdDeviation="17.5" result="effect1_foregroundBlur"/>
</filter>
<linearGradient id="paint0_linear" x1="39.7832" y1="46.1686" x2="65.9593" y2="46.2437" gradientUnits="userSpaceOnUse">
<stop stop-color="#FF3131"/>
<stop offset="1" stop-color="#FF7777"/>
</linearGradient>
<linearGradient id="paint1_linear" x1="39.7832" y1="46.1686" x2="65.9593" y2="46.2437" gradientUnits="userSpaceOnUse">
<stop stop-color="#FF3131"/>
<stop offset="1" stop-color="#FF7777"/>
</linearGradient>
</defs>
</svg>
