<svg width="60" height="700" viewBox="0 0 60 700" fill="none" xmlns="http://www.w3.org/2000/svg">
<rect x="25" width="10" height="700" rx="5" fill="#ECAD09"/>
<circle cx="30" cy="343" r="30" fill="#ECAD09"/>
<path opacity="0.65" d="M32.5 361C32.5 363.761 34.7632 366.053 37.4624 365.47C38.8377 365.173 40.1869 364.752 41.4931 364.211C44.3442 363.03 46.9348 361.299 49.117 359.117C51.2992 356.935 53.0302 354.344 54.2112 351.493C55.3922 348.642 56 345.586 56 342.5C56 339.414 55.3922 336.358 54.2112 333.507C53.0302 330.656 51.2992 328.065 49.117 325.883C46.9348 323.701 44.3442 321.97 41.4931 320.789C40.1869 320.248 38.8377 319.827 37.4624 319.53C34.7632 318.947 32.5 321.239 32.5 324L32.5 342.5L32.5 361Z" fill="#D39C0E"/>
<path d="M47.601 343.601C47.933 343.269 47.933 342.731 47.601 342.399L42.1917 336.99C41.8597 336.658 41.3215 336.658 40.9896 336.99C40.6576 337.322 40.6576 337.86 40.9896 338.192L45.7979 343L40.9896 347.808C40.6576 348.14 40.6576 348.678 40.9896 349.01C41.3215 349.342 41.8597 349.342 42.1917 349.01L47.601 343.601ZM46 343.85H47V342.15H46V343.85Z" fill="#B38716"/>
<path opacity="0.65" d="M27.5 324C27.5 321.239 25.2368 318.947 22.5376 319.53C21.1623 319.827 19.8131 320.248 18.5069 320.789C15.6558 321.97 13.0652 323.701 10.883 325.883C8.70081 328.065 6.96982 330.656 5.78883 333.507C4.60785 336.358 4 339.414 4 342.5C4 345.586 4.60785 348.642 5.78883 351.493C6.96982 354.344 8.70081 356.935 10.883 359.117C13.0652 361.299 15.6558 363.03 18.5069 364.211C19.8131 364.752 21.1623 365.173 22.5376 365.47C25.2368 366.053 27.5 363.761 27.5 361L27.5 342.5L27.5 324Z" fill="#D39C0E"/>
<path d="M11.399 342.399C11.067 342.731 11.067 343.269 11.399 343.601L16.8083 349.01C17.1403 349.342 17.6785 349.342 18.0104 349.01C18.3424 348.678 18.3424 348.14 18.0104 347.808L13.2021 343L18.0104 338.192C18.3424 337.86 18.3424 337.322 18.0104 336.99C17.6785 336.658 17.1403 336.658 16.8083 336.99L11.399 342.399ZM13 342.15L12 342.15L12 343.85L13 343.85L13 342.15Z" fill="#B38716"/>
</svg>
